<svg version="1.1" viewBox="0.0 0.0 1280.0 960.0" fill="none" stroke="none" stroke-linecap="square" stroke-miterlimit="10" xmlns:xlink="http://www.w3.org/1999/xlink" xmlns="http://www.w3.org/2000/svg"><clipPath id="p.0"><path d="m0 0l1280.0 0l0 960.0l-1280.0 0l0 -960.0z" clip-rule="nonzero"/></clipPath><g clip-path="url(#p.0)"><path fill="#000000" fill-opacity="0.0" d="m0 0l1280.0 0l0 960.0l-1280.0 0z" fill-rule="evenodd"/><path fill="#111c4e" d="m211.58209 599.11426l155.3386 0l0 93.543274l-155.3386 0z" fill-rule="evenodd"/><path stroke="#7183d9" stroke-width="2.0" stroke-linejoin="round" stroke-linecap="butt" d="m211.58209 599.11426l155.3386 0l0 93.543274l-155.3386 0z" fill-rule="evenodd"/><path fill="#ffffff" d="m245.1788 622.1134q-0.1875 -0.625 -0.515625 -1.09375q-0.3125 -0.484375 -0.78125 -0.828125q-0.46875 -0.34375 -1.0625 -0.515625q-0.578125 -0.171875 -1.296875 -0.171875q-1.34375 0 -2.359375 0.671875q-1.0 0.65625 -1.5625 1.921875q-0.5625 1.265625 -0.5625 3.078125q0 1.828125 0.546875 3.109375q0.5625 1.28125 1.578125 1.953125q1.015625 0.65625 2.390625 0.65625q1.25 0 2.140625 -0.4375q0.890625 -0.453125 1.359375 -1.265625q0.484375 -0.828125 0.484375 -1.9375l0.75 0.109375l-4.5 0l0 -2.78125l7.296875 0l0 2.203125q0 2.296875 -0.96875 3.953125q-0.96875 1.640625 -2.671875 2.53125q-1.703125 0.890625 -3.90625 0.890625q-2.453125 0 -4.3125 -1.078125q-1.859375 -1.09375 -2.90625 -3.09375q-1.03125 -2.015625 -1.03125 -4.765625q0 -2.125 0.625 -3.796875q0.625 -1.671875 1.734375 -2.828125q1.109375 -1.15625 2.59375 -1.75q1.484375 -0.609375 3.21875 -0.609375q1.484375 0 2.765625 0.4375q1.28125 0.421875 2.265625 1.203125q1.0 0.78125 1.625 1.859375q0.625 1.078125 0.8125 2.375l-3.75 0zm8.740097 12.03125q-0.84375 0 -1.453125 -0.59375q-0.59375 -0.609375 -0.59375 -1.453125q0 -0.828125 0.59375 -1.421875q0.609375 -0.609375 1.453125 -0.609375q0.8125 0 1.421875 0.609375q0.609375 0.59375 0.609375 1.421875q0 0.5625 -0.28125 1.03125q-0.28125 0.46875 -0.75 0.75q-0.453125 0.265625 -1.0 0.265625zm5.017044 -0.21875l0 -13.09375l3.625 0l0 13.09375l-3.625 0zm1.8125 -14.78125q-0.796875 0 -1.375 -0.53125q-0.578125 -0.546875 -0.578125 -1.3125q0 -0.75 0.578125 -1.28125q0.578125 -0.546875 1.375 -0.546875q0.8125 0 1.390625 0.546875q0.578125 0.53125 0.578125 1.28125q0 0.765625 -0.578125 1.3125q-0.578125 0.53125 -1.390625 0.53125zm10.622192 15.03125q-1.984375 0 -3.4375 -0.84375q-1.4375 -0.84375 -2.21875 -2.359375q-0.78125 -1.53125 -0.78125 -3.546875q0 -2.015625 0.78125 -3.53125q0.78125 -1.53125 2.21875 -2.375q1.453125 -0.859375 3.4375 -0.859375q1.984375 0 3.421875 0.859375q1.453125 0.84375 2.234375 2.375q0.796875 1.515625 0.796875 3.53125q0 2.015625 -0.796875 3.546875q-0.78125 1.515625 -2.234375 2.359375q-1.4375 0.84375 -3.421875 0.84375zm0.015625 -2.8125q0.90625 0 1.515625 -0.515625q0.609375 -0.515625 0.90625 -1.40625q0.3125 -0.890625 0.3125 -2.03125q0 -1.140625 -0.3125 -2.03125q-0.296875 -0.90625 -0.90625 -1.421875q-0.609375 -0.515625 -1.515625 -0.515625q-0.90625 0 -1.53125 0.515625q-0.609375 0.515625 -0.921875 1.421875q-0.3125 0.890625 -0.3125 2.03125q0 1.140625 0.3125 2.03125q0.3125 0.890625 0.921875 1.40625q0.625 0.515625 1.53125 0.515625zm17.448914 2.5625l-3.953125 0l6.015625 -17.453125l4.765625 0l6.015625 17.453125l-3.953125 0l-4.375 -13.46875l-0.140625 0l-4.375 13.46875zm-0.25 -6.859375l9.34375 0l0 2.875l-9.34375 0l0 -2.875zm15.183289 6.859375l0 -17.453125l6.890625 0q1.984375 0 3.375 0.75q1.40625 0.75 2.140625 2.09375q0.734375 1.328125 0.734375 3.0625q0 1.75 -0.75 3.078125q-0.75 1.328125 -2.171875 2.078125q-1.40625 0.734375 -3.421875 0.734375l-4.390625 0l0 -2.953125l3.796875 0q1.0625 0 1.75 -0.375q0.703125 -0.375 1.046875 -1.03125q0.34375 -0.65625 0.34375 -1.53125q0 -0.859375 -0.34375 -1.515625q-0.34375 -0.65625 -1.046875 -1.015625q-0.703125 -0.359375 -1.765625 -0.359375l-2.5 0l0 14.4375l-3.6875 0zm19.233002 -17.453125l0 17.453125l-3.6875 0l0 -17.453125l3.6875 0zm2.9829712 17.453125l0 -13.09375l3.453125 0l0 2.3125l0.15625 0q0.40625 -1.15625 1.359375 -1.8125q0.953125 -0.671875 2.28125 -0.671875q1.359375 0 2.296875 0.671875q0.953125 0.671875 1.265625 1.8125l0.140625 0q0.390625 -1.125 1.4375 -1.796875q1.0625 -0.6875 2.5 -0.6875q1.828125 0 2.96875 1.171875q1.15625 1.15625 1.15625 3.296875l0 8.796875l-3.625 0l0 -8.09375q0 -1.078125 -0.578125 -1.625q-0.578125 -0.546875 -1.4375 -0.546875q-1.0 0 -1.5625 0.625q-0.546875 0.625 -0.546875 1.640625l0 8.0l-3.515625 0l0 -8.171875q0 -0.953125 -0.546875 -1.515625q-0.546875 -0.578125 -1.453125 -0.578125q-0.59375 0 -1.078125 0.296875q-0.484375 0.296875 -0.765625 0.84375q-0.28125 0.546875 -0.28125 1.265625l0 7.859375l-3.625 0z" fill-rule="nonzero"/><path fill="#ffffff" d="m250.58223 657.1134q-0.1875 -0.625 -0.515625 -1.09375q-0.3125 -0.484375 -0.78125 -0.828125q-0.46875 -0.34375 -1.0625 -0.515625q-0.578125 -0.171875 -1.296875 -0.171875q-1.34375 0 -2.359375 0.671875q-1.0 0.65625 -1.5625 1.921875q-0.5625 1.265625 -0.5625 3.078125q0 1.828125 0.546875 3.109375q0.5625 1.28125 1.578125 1.953125q1.015625 0.65625 2.390625 0.65625q1.25 0 2.140625 -0.4375q0.890625 -0.453125 1.359375 -1.265625q0.484375 -0.828125 0.484375 -1.9375l0.75 0.109375l-4.5 0l0 -2.78125l7.296875 0l0 2.203125q0 2.296875 -0.96875 3.953125q-0.96875 1.640625 -2.671875 2.53125q-1.703125 0.890625 -3.90625 0.890625q-2.453125 0 -4.3125 -1.078125q-1.859375 -1.09375 -2.90625 -3.09375q-1.03125 -2.015625 -1.03125 -4.765625q0 -2.125 0.625 -3.796875q0.625 -1.671875 1.734375 -2.828125q1.109375 -1.15625 2.59375 -1.75q1.484375 -0.609375 3.21875 -0.609375q1.484375 0 2.765625 0.4375q1.28125 0.421875 2.265625 1.203125q1.0 0.78125 1.625 1.859375q0.625 1.078125 0.8125 2.375l-3.75 0zm10.349472 12.0625q-1.265625 0 -2.25 -0.4375q-0.96875 -0.4375 -1.546875 -1.296875q-0.5625 -0.875 -0.5625 -2.171875q0 -1.09375 0.40625 -1.828125q0.40625 -0.75 1.09375 -1.203125q0.6875 -0.453125 1.5625 -0.671875q0.890625 -0.234375 1.859375 -0.328125q1.140625 -0.125 1.84375 -0.21875q0.703125 -0.109375 1.015625 -0.328125q0.3125 -0.21875 0.3125 -0.625l0 -0.0625q0 -0.796875 -0.515625 -1.234375q-0.5 -0.453125 -1.421875 -0.453125q-0.984375 0 -1.5625 0.4375q-0.578125 0.421875 -0.765625 1.0625l-3.359375 -0.265625q0.25 -1.1875 1.0 -2.0625q0.75 -0.875 1.9375 -1.34375q1.1875 -0.484375 2.765625 -0.484375q1.09375 0 2.09375 0.265625q1.0 0.25 1.78125 0.796875q0.78125 0.53125 1.21875 1.375q0.453125 0.828125 0.453125 2.0l0 8.828125l-3.4375 0l0 -1.8125l-0.09375 0q-0.328125 0.609375 -0.859375 1.078125q-0.515625 0.46875 -1.265625 0.734375q-0.734375 0.25 -1.703125 0.25zm1.03125 -2.515625q0.796875 0 1.40625 -0.3125q0.625 -0.3125 0.96875 -0.859375q0.359375 -0.546875 0.359375 -1.234375l0 -1.390625q-0.171875 0.109375 -0.46875 0.203125q-0.296875 0.078125 -0.671875 0.15625q-0.359375 0.0625 -0.734375 0.125q-0.359375 0.0625 -0.65625 0.09375q-0.640625 0.09375 -1.125 0.296875q-0.46875 0.203125 -0.734375 0.5625q-0.265625 0.34375 -0.265625 0.84375q0 0.75 0.546875 1.140625q0.546875 0.375 1.375 0.375zm16.113678 -10.828125l0 2.734375l-7.875 0l0 -2.734375l7.875 0zm-6.09375 -3.140625l3.640625 0l0 12.21875q0 0.5 0.140625 0.78125q0.15625 0.265625 0.4375 0.375q0.28125 0.109375 0.640625 0.109375q0.265625 0 0.515625 -0.046875q0.25 -0.046875 0.390625 -0.0625l0.578125 2.703125q-0.28125 0.078125 -0.78125 0.1875q-0.484375 0.125 -1.1875 0.140625q-1.3125 0.0625 -2.296875 -0.34375q-0.984375 -0.40625 -1.53125 -1.25q-0.546875 -0.84375 -0.546875 -2.125l0 -12.6875zm14.2969055 16.484375q-2.03125 0 -3.484375 -0.8125q-1.453125 -0.828125 -2.234375 -2.34375q-0.78125 -1.515625 -0.78125 -3.578125q0 -2.015625 0.78125 -3.546875q0.78125 -1.53125 2.203125 -2.375q1.4375 -0.859375 3.359375 -0.859375q1.296875 0 2.421875 0.421875q1.125 0.40625 1.953125 1.234375q0.84375 0.828125 1.3125 2.078125q0.46875 1.25 0.46875 2.921875l0 1.0l-11.046875 0l0 -2.25l7.625 0q0 -0.796875 -0.34375 -1.390625q-0.328125 -0.609375 -0.9375 -0.953125q-0.59375 -0.34375 -1.390625 -0.34375q-0.828125 0 -1.46875 0.375q-0.625 0.375 -0.984375 1.015625q-0.359375 0.640625 -0.359375 1.40625l0 2.140625q0 0.96875 0.359375 1.6875q0.359375 0.703125 1.015625 1.09375q0.671875 0.375 1.578125 0.375q0.609375 0 1.109375 -0.171875q0.5 -0.171875 0.859375 -0.515625q0.359375 -0.34375 0.546875 -0.828125l3.359375 0.21875q-0.25 1.203125 -1.046875 2.109375q-0.78125 0.90625 -2.03125 1.40625q-1.234375 0.484375 -2.84375 0.484375zm10.850861 -0.25l-3.5625 -13.09375l3.671875 0l2.03125 8.796875l0.125 0l2.109375 -8.796875l3.609375 0l2.140625 8.75l0.109375 0l2.0 -8.75l3.65625 0l-3.546875 13.09375l-3.84375 0l-2.25 -8.234375l-0.171875 0l-2.25 8.234375l-3.828125 0zm21.559723 0.25q-1.265625 0 -2.25 -0.4375q-0.96875 -0.4375 -1.546875 -1.296875q-0.5625 -0.875 -0.5625 -2.171875q0 -1.09375 0.40625 -1.828125q0.40625 -0.75 1.09375 -1.203125q0.6875 -0.453125 1.5625 -0.671875q0.890625 -0.234375 1.859375 -0.328125q1.140625 -0.125 1.84375 -0.21875q0.703125 -0.109375 1.015625 -0.328125q0.3125 -0.21875 0.3125 -0.625l0 -0.0625q0 -0.796875 -0.515625 -1.234375q-0.5 -0.453125 -1.421875 -0.453125q-0.984375 0 -1.5625 0.4375q-0.578125 0.421875 -0.765625 1.0625l-3.359375 -0.265625q0.25 -1.1875 1.0 -2.0625q0.75 -0.875 1.9375 -1.34375q1.1875 -0.484375 2.765625 -0.484375q1.09375 0 2.09375 0.265625q1.0 0.25 1.78125 0.796875q0.78125 0.53125 1.21875 1.375q0.453125 0.828125 0.453125 2.0l0 8.828125l-3.4375 0l0 -1.8125l-0.09375 0q-0.328125 0.609375 -0.859375 1.078125q-0.515625 0.46875 -1.265625 0.734375q-0.734375 0.25 -1.703125 0.25zm1.03125 -2.515625q0.796875 0 1.40625 -0.3125q0.625 -0.3125 0.96875 -0.859375q0.359375 -0.546875 0.359375 -1.234375l0 -1.390625q-0.171875 0.109375 -0.46875 0.203125q-0.296875 0.078125 -0.671875 0.15625q-0.359375 0.0625 -0.734375 0.125q-0.359375 0.0625 -0.65625 0.09375q-0.640625 0.09375 -1.125 0.296875q-0.46875 0.203125 -0.734375 0.5625q-0.265625 0.34375 -0.265625 0.84375q0 0.75 0.546875 1.140625q0.546875 0.375 1.375 0.375zm10.917633 7.171875q-0.6875 0 -1.296875 -0.109375q-0.59375 -0.09375 -0.984375 -0.265625l0.8125 -2.703125q0.640625 0.1875 1.15625 0.203125q0.515625 0.015625 0.890625 -0.234375q0.390625 -0.25 0.625 -0.875l0.21875 -0.546875l-4.703125 -13.46875l3.828125 0l2.703125 9.609375l0.140625 0l2.734375 -9.609375l3.84375 0l-5.09375 14.515625q-0.359375 1.046875 -0.984375 1.828125q-0.625 0.796875 -1.59375 1.21875q-0.953125 0.4375 -2.296875 0.4375z" fill-rule="nonzero"/><path fill="#111c4e" d="m418.61588 599.11426l155.3386 0l0 93.543274l-155.3386 0z" fill-rule="evenodd"/><path stroke="#7183d9" stroke-width="2.0" stroke-linejoin="round" stroke-linecap="butt" d="m418.61588 599.11426l155.3386 0l0 93.543274l-155.3386 0z" fill-rule="evenodd"/><path fill="#ffffff" d="m452.2126 622.1134q-0.1875 -0.625 -0.515625 -1.09375q-0.3125 -0.484375 -0.78125 -0.828125q-0.46875 -0.34375 -1.0625 -0.515625q-0.578125 -0.171875 -1.296875 -0.171875q-1.34375 0 -2.359375 0.671875q-1.0 0.65625 -1.5625 1.921875q-0.5625 1.265625 -0.5625 3.078125q0 1.828125 0.546875 3.109375q0.5625 1.28125 1.578125 1.953125q1.015625 0.65625 2.390625 0.65625q1.25 0 2.140625 -0.4375q0.890625 -0.453125 1.359375 -1.265625q0.484375 -0.828125 0.484375 -1.9375l0.75 0.109375l-4.5 0l0 -2.78125l7.296875 0l0 2.203125q0 2.296875 -0.96875 3.953125q-0.96875 1.640625 -2.671875 2.53125q-1.703125 0.890625 -3.90625 0.890625q-2.453125 0 -4.3125 -1.078125q-1.859375 -1.09375 -2.90625 -3.09375q-1.03125 -2.015625 -1.03125 -4.765625q0 -2.125 0.625 -3.796875q0.625 -1.671875 1.734375 -2.828125q1.109375 -1.15625 2.59375 -1.75q1.484375 -0.609375 3.21875 -0.609375q1.484375 0 2.765625 0.4375q1.28125 0.421875 2.265625 1.203125q1.0 0.78125 1.625 1.859375q0.625 1.078125 0.8125 2.375l-3.75 0zm8.740082 12.03125q-0.84375 0 -1.453125 -0.59375q-0.59375 -0.609375 -0.59375 -1.453125q0 -0.828125 0.59375 -1.421875q0.609375 -0.609375 1.453125 -0.609375q0.8125 0 1.421875 0.609375q0.609375 0.59375 0.609375 1.421875q0 0.5625 -0.28125 1.03125q-0.28125 0.46875 -0.75 0.75q-0.453125 0.265625 -1.0 0.265625zm5.0170593 -0.21875l0 -13.09375l3.625 0l0 13.09375l-3.625 0zm1.8125 -14.78125q-0.796875 0 -1.375 -0.53125q-0.578125 -0.546875 -0.578125 -1.3125q0 -0.75 0.578125 -1.28125q0.578125 -0.546875 1.375 -0.546875q0.8125 0 1.390625 0.546875q0.578125 0.53125 0.578125 1.28125q0 0.765625 -0.578125 1.3125q-0.578125 0.53125 -1.390625 0.53125zm10.622192 15.03125q-1.984375 0 -3.4375 -0.84375q-1.4375 -0.84375 -2.21875 -2.359375q-0.78125 -1.53125 -0.78125 -3.546875q0 -2.015625 0.78125 -3.53125q0.78125 -1.53125 2.21875 -2.375q1.453125 -0.859375 3.4375 -0.859375q1.984375 0 3.421875 0.859375q1.453125 0.84375 2.234375 2.375q0.796875 1.515625 0.796875 3.53125q0 2.015625 -0.796875 3.546875q-0.78125 1.515625 -2.234375 2.359375q-1.4375 0.84375 -3.421875 0.84375zm0.015625 -2.8125q0.90625 0 1.515625 -0.515625q0.609375 -0.515625 0.90625 -1.40625q0.3125 -0.890625 0.3125 -2.03125q0 -1.140625 -0.3125 -2.03125q-0.296875 -0.90625 -0.90625 -1.421875q-0.609375 -0.515625 -1.515625 -0.515625q-0.90625 0 -1.53125 0.515625q-0.609375 0.515625 -0.921875 1.421875q-0.3125 0.890625 -0.3125 2.03125q0 1.140625 0.3125 2.03125q0.3125 0.890625 0.921875 1.40625q0.625 0.515625 1.53125 0.515625zm17.448914 2.5625l-3.953125 0l6.015625 -17.453125l4.765625 0l6.015625 17.453125l-3.953125 0l-4.375 -13.46875l-0.140625 0l-4.375 13.46875zm-0.25 -6.859375l9.34375 0l0 2.875l-9.34375 0l0 -2.875zm15.183289 6.859375l0 -17.453125l6.890625 0q1.984375 0 3.375 0.75q1.40625 0.75 2.140625 2.09375q0.734375 1.328125 0.734375 3.0625q0 1.75 -0.75 3.078125q-0.75 1.328125 -2.171875 2.078125q-1.40625 0.734375 -3.421875 0.734375l-4.390625 0l0 -2.953125l3.796875 0q1.0625 0 1.75 -0.375q0.703125 -0.375 1.046875 -1.03125q0.34375 -0.65625 0.34375 -1.53125q0 -0.859375 -0.34375 -1.515625q-0.34375 -0.65625 -1.046875 -1.015625q-0.703125 -0.359375 -1.765625 -0.359375l-2.5 0l0 14.4375l-3.6875 0zm19.232971 -17.453125l0 17.453125l-3.6875 0l0 -17.453125l3.6875 0zm2.9829712 17.453125l0 -13.09375l3.453125 0l0 2.3125l0.15625 0q0.40625 -1.15625 1.359375 -1.8125q0.953125 -0.671875 2.28125 -0.671875q1.359375 0 2.296875 0.671875q0.953125 0.671875 1.265625 1.8125l0.140625 0q0.390625 -1.125 1.4375 -1.796875q1.0625 -0.6875 2.500061 -0.6875q1.828125 0 2.96875 1.171875q1.15625 1.15625 1.15625 3.296875l0 8.796875l-3.625 0l0 -8.09375q0 -1.078125 -0.578125 -1.625q-0.578125 -0.546875 -1.437561 -0.546875q-1.0 0 -1.5625 0.625q-0.546875 0.625 -0.546875 1.640625l0 8.0l-3.515625 0l0 -8.171875q0 -0.953125 -0.546875 -1.515625q-0.546875 -0.578125 -1.453125 -0.578125q-0.59375 0 -1.078125 0.296875q-0.484375 0.296875 -0.765625 0.84375q-0.28125 0.546875 -0.28125 1.265625l0 7.859375l-3.625 0z" fill-rule="nonzero"/><path fill="#ffffff" d="m457.61603 657.1134q-0.1875 -0.625 -0.515625 -1.09375q-0.3125 -0.484375 -0.78125 -0.828125q-0.46875 -0.34375 -1.0625 -0.515625q-0.578125 -0.171875 -1.296875 -0.171875q-1.34375 0 -2.359375 0.671875q-1.0 0.65625 -1.5625 1.921875q-0.5625 1.265625 -0.5625 3.078125q0 1.828125 0.546875 3.109375q0.5625 1.28125 1.578125 1.953125q1.015625 0.65625 2.390625 0.65625q1.25 0 2.140625 -0.4375q0.890625 -0.453125 1.359375 -1.265625q0.484375 -0.828125 0.484375 -1.9375l0.75 0.109375l-4.5 0l0 -2.78125l7.296875 0l0 2.203125q0 2.296875 -0.96875 3.953125q-0.96875 1.640625 -2.671875 2.53125q-1.703125 0.890625 -3.90625 0.890625q-2.453125 0 -4.3125 -1.078125q-1.859375 -1.09375 -2.90625 -3.09375q-1.03125 -2.015625 -1.03125 -4.765625q0 -2.125 0.625 -3.796875q0.625 -1.671875 1.734375 -2.828125q1.109375 -1.15625 2.59375 -1.75q1.484375 -0.609375 3.21875 -0.609375q1.484375 0 2.765625 0.4375q1.28125 0.421875 2.265625 1.203125q1.0 0.78125 1.625 1.859375q0.625 1.078125 0.8125 2.375l-3.75 0zm10.349457 12.0625q-1.265625 0 -2.25 -0.4375q-0.96875 -0.4375 -1.546875 -1.296875q-0.5625 -0.875 -0.5625 -2.171875q0 -1.09375 0.40625 -1.828125q0.40625 -0.75 1.09375 -1.203125q0.6875 -0.453125 1.5625 -0.671875q0.890625 -0.234375 1.859375 -0.328125q1.140625 -0.125 1.84375 -0.21875q0.703125 -0.109375 1.015625 -0.328125q0.3125 -0.21875 0.3125 -0.625l0 -0.0625q0 -0.796875 -0.515625 -1.234375q-0.5 -0.453125 -1.421875 -0.453125q-0.984375 0 -1.5625 0.4375q-0.578125 0.421875 -0.765625 1.0625l-3.359375 -0.265625q0.25 -1.1875 1.0 -2.0625q0.75 -0.875 1.9375 -1.34375q1.1875 -0.484375 2.765625 -0.484375q1.09375 0 2.09375 0.265625q1.0 0.25 1.78125 0.796875q0.78125 0.53125 1.21875 1.375q0.453125 0.828125 0.453125 2.0l0 8.828125l-3.4375 0l0 -1.8125l-0.09375 0q-0.328125 0.609375 -0.859375 1.078125q-0.515625 0.46875 -1.265625 0.734375q-0.734375 0.25 -1.703125 0.25zm1.03125 -2.515625q0.796875 0 1.40625 -0.3125q0.625 -0.3125 0.96875 -0.859375q0.359375 -0.546875 0.359375 -1.234375l0 -1.390625q-0.171875 0.109375 -0.46875 0.203125q-0.296875 0.078125 -0.671875 0.15625q-0.359375 0.0625 -0.734375 0.125q-0.359375 0.0625 -0.65625 0.09375q-0.640625 0.09375 -1.125 0.296875q-0.46875 0.203125 -0.734375 0.5625q-0.265625 0.34375 -0.265625 0.84375q0 0.75 0.546875 1.140625q0.546875 0.375 1.375 0.375zm16.113678 -10.828125l0 2.734375l-7.875 0l0 -2.734375l7.875 0zm-6.09375 -3.140625l3.640625 0l0 12.21875q0 0.5 0.140625 0.78125q0.15625 0.265625 0.4375 0.375q0.28125 0.109375 0.640625 0.109375q0.265625 0 0.515625 -0.046875q0.25 -0.046875 0.390625 -0.0625l0.578125 2.703125q-0.28125 0.078125 -0.78125 0.1875q-0.484375 0.125 -1.1875 0.140625q-1.3125 0.0625 -2.296875 -0.34375q-0.984375 -0.40625 -1.53125 -1.25q-0.546875 -0.84375 -0.546875 -2.125l0 -12.6875zm14.2969055 16.484375q-2.03125 0 -3.484375 -0.8125q-1.453125 -0.828125 -2.234375 -2.34375q-0.78125 -1.515625 -0.78125 -3.578125q0 -2.015625 0.78125 -3.546875q0.78125 -1.53125 2.203125 -2.375q1.4375 -0.859375 3.359375 -0.859375q1.296875 0 2.421875 0.421875q1.125 0.40625 1.953125 1.234375q0.84375 0.828125 1.3125 2.078125q0.46875 1.25 0.46875 2.921875l0 1.0l-11.046875 0l0 -2.25l7.625 0q0 -0.796875 -0.34375 -1.390625q-0.328125 -0.609375 -0.9375 -0.953125q-0.59375 -0.34375 -1.390625 -0.34375q-0.828125 0 -1.46875 0.375q-0.625 0.375 -0.984375 1.015625q-0.359375 0.640625 -0.359375 1.40625l0 2.140625q0 0.96875 0.359375 1.6875q0.359375 0.703125 1.015625 1.09375q0.671875 0.375 1.578125 0.375q0.609375 0 1.109375 -0.171875q0.5 -0.171875 0.859375 -0.515625q0.359375 -0.34375 0.546875 -0.828125l3.359375 0.21875q-0.25 1.203125 -1.046875 2.109375q-0.78125 0.90625 -2.03125 1.40625q-1.234375 0.484375 -2.84375 0.484375zm10.850861 -0.25l-3.5625 -13.09375l3.671875 0l2.03125 8.796875l0.125 0l2.109375 -8.796875l3.609375 0l2.140625 8.75l0.109375 0l2.0 -8.75l3.65625 0l-3.546875 13.09375l-3.84375 0l-2.25 -8.234375l-0.171875 0l-2.25 8.234375l-3.828125 0zm21.559692 0.25q-1.265625 0 -2.25 -0.4375q-0.96875 -0.4375 -1.546875 -1.296875q-0.5625 -0.875 -0.5625 -2.171875q0 -1.09375 0.40625 -1.828125q0.40625 -0.75 1.09375 -1.203125q0.6875 -0.453125 1.5625 -0.671875q0.890625 -0.234375 1.859375 -0.328125q1.140625 -0.125 1.84375 -0.21875q0.703125 -0.109375 1.015625 -0.328125q0.3125 -0.21875 0.3125 -0.625l0 -0.0625q0 -0.796875 -0.515625 -1.234375q-0.5 -0.453125 -1.421875 -0.453125q-0.984375 0 -1.5625 0.4375q-0.578125 0.421875 -0.765625 1.0625l-3.359375 -0.265625q0.25 -1.1875 1.0 -2.0625q0.75 -0.875 1.9375 -1.34375q1.1875 -0.484375 2.765625 -0.484375q1.09375 0 2.09375 0.265625q1.0 0.25 1.78125 0.796875q0.78125 0.53125 1.21875 1.375q0.453125 0.828125 0.453125 2.0l0 8.828125l-3.4375 0l0 -1.8125l-0.09375 0q-0.328125 0.609375 -0.859375 1.078125q-0.515625 0.46875 -1.265625 0.734375q-0.734375 0.25 -1.703125 0.25zm1.03125 -2.515625q0.796875 0 1.40625 -0.3125q0.625 -0.3125 0.96875 -0.859375q0.359375 -0.546875 0.359375 -1.234375l0 -1.390625q-0.171875 0.109375 -0.46875 0.203125q-0.296875 0.078125 -0.671875 0.15625q-0.359375 0.0625 -0.734375 0.125q-0.359375 0.0625 -0.65625 0.09375q-0.640625 0.09375 -1.125 0.296875q-0.46875 0.203125 -0.734375 0.5625q-0.265625 0.34375 -0.265625 0.84375q0 0.75 0.546875 1.140625q0.546875 0.375 1.375 0.375zm10.917664 7.171875q-0.6875 0 -1.296875 -0.109375q-0.59375 -0.09375 -0.984375 -0.265625l0.8125 -2.703125q0.640625 0.1875 1.15625 0.203125q0.515625 0.015625 0.890625 -0.234375q0.390625 -0.25 0.625 -0.875l0.21875 -0.546875l-4.703125 -13.46875l3.828125 0l2.703125 9.609375l0.140625 0l2.734375 -9.609375l3.84375 0l-5.09375 14.515625q-0.359375 1.046875 -0.984375 1.828125q-0.625 0.796875 -1.59375 1.21875q-0.953125 0.4375 -2.296875 0.4375z" fill-rule="nonzero"/><path fill="#111c4e" d="m315.099 361.0765l155.33856 0l0 93.543304l-155.33856 0z" fill-rule="evenodd"/><path stroke="#7183d9" stroke-width="1.0" stroke-linejoin="round" stroke-linecap="butt" d="m315.099 361.0765l155.33856 0l0 93.543304l-155.33856 0z" fill-rule="evenodd"/><path fill="#ffffff" d="m368.63916 396.60815l0 -16.484375l1.5 0l0 15.125l7.859375 0l0 1.359375l-9.359375 0zm17.243958 0.25q-1.59375 0 -2.828125 -0.8125q-1.21875 -0.8125 -1.921875 -2.234375q-0.6875 -1.4375 -0.6875 -3.328125q0 -1.890625 0.6875 -3.328125q0.703125 -1.453125 1.921875 -2.265625q1.234375 -0.8125 2.828125 -0.8125q1.609375 0 2.828125 0.8125q1.21875 0.8125 1.90625 2.265625q0.703125 1.4375 0.703125 3.328125q0 1.890625 -0.6875 3.328125q-0.6875 1.421875 -1.921875 2.234375q-1.21875 0.8125 -2.828125 0.8125zm0 -1.296875q1.296875 0 2.1875 -0.6875q0.890625 -0.703125 1.34375 -1.84375q0.46875 -1.15625 0.46875 -2.546875q0 -1.375 -0.46875 -2.53125q-0.453125 -1.171875 -1.34375 -1.859375q-0.890625 -0.703125 -2.1875 -0.703125q-1.265625 0 -2.171875 0.703125q-0.890625 0.6875 -1.359375 1.859375q-0.46875 1.15625 -0.46875 2.53125q0 1.390625 0.46875 2.546875q0.46875 1.140625 1.359375 1.84375q0.890625 0.6875 2.171875 0.6875zm12.043854 1.328125q-1.125 0 -2.046875 -0.4375q-0.921875 -0.4375 -1.46875 -1.265625q-0.546875 -0.84375 -0.546875 -2.03125q0 -0.921875 0.34375 -1.546875q0.34375 -0.625 0.984375 -1.015625q0.640625 -0.40625 1.5 -0.640625q0.875 -0.234375 1.921875 -0.375q1.03125 -0.125 1.75 -0.21875q0.71875 -0.09375 1.09375 -0.296875q0.390625 -0.21875 0.390625 -0.6875l0 -0.28125q0 -1.265625 -0.765625 -1.984375q-0.75 -0.734375 -2.15625 -0.734375q-1.328125 0 -2.171875 0.59375q-0.84375 0.578125 -1.171875 1.375l-1.359375 -0.5q0.40625 -1.0 1.140625 -1.609375q0.75 -0.609375 1.65625 -0.875q0.921875 -0.28125 1.875 -0.28125q0.703125 0 1.46875 0.1875q0.765625 0.1875 1.421875 0.640625q0.671875 0.453125 1.078125 1.265625q0.40625 0.8125 0.40625 2.046875l0 8.390625l-1.421875 0l0 -1.953125l-0.09375 0q-0.25 0.546875 -0.765625 1.0625q-0.5 0.515625 -1.265625 0.84375q-0.765625 0.328125 -1.796875 0.328125zm0.1875 -1.3125q1.140625 0 1.96875 -0.5q0.84375 -0.515625 1.296875 -1.34375q0.46875 -0.84375 0.46875 -1.859375l0 -1.796875q-0.171875 0.15625 -0.546875 0.28125q-0.375 0.125 -0.859375 0.21875q-0.484375 0.078125 -0.96875 0.15625q-0.484375 0.0625 -0.859375 0.109375q-1.046875 0.125 -1.796875 0.40625q-0.734375 0.265625 -1.125 0.75q-0.390625 0.46875 -0.390625 1.21875q0 1.125 0.796875 1.75q0.8125 0.609375 2.015625 0.609375zm13.419708 1.28125q-1.53125 0 -2.671875 -0.796875q-1.140625 -0.8125 -1.78125 -2.25q-0.640625 -1.4375 -0.640625 -3.34375q0 -1.90625 0.640625 -3.34375q0.640625 -1.4375 1.78125 -2.234375q1.15625 -0.8125 2.6875 -0.8125q1.125 0 1.875 0.40625q0.75 0.390625 1.203125 0.984375q0.453125 0.578125 0.703125 1.140625l0.125 0l0 -6.484375l1.4375 0l0 16.484375l-1.390625 0l0 -2.296875l-0.171875 0q-0.25 0.5625 -0.71875 1.15625q-0.453125 0.59375 -1.203125 1.0q-0.75 0.390625 -1.875 0.390625zm0.171875 -1.296875q1.1875 0 2.03125 -0.65625q0.84375 -0.65625 1.296875 -1.8125q0.453125 -1.15625 0.453125 -2.65625q0 -1.484375 -0.453125 -2.609375q-0.4375 -1.140625 -1.28125 -1.78125q-0.84375 -0.65625 -2.046875 -0.65625q-1.25 0 -2.09375 0.671875q-0.84375 0.671875 -1.296875 1.8125q-0.4375 1.140625 -0.4375 2.5625q0 1.4375 0.4375 2.609375q0.453125 1.15625 1.296875 1.84375q0.859375 0.671875 2.09375 0.671875z" fill-rule="nonzero"/><path fill="#ffffff" d="m348.92383 429.60815l0 -16.484375l5.5625 0q1.609375 0 2.671875 0.578125q1.078125 0.5625 1.609375 1.53125q0.546875 0.96875 0.546875 2.203125q0 1.03125 -0.34375 1.765625q-0.34375 0.734375 -0.9375 1.1875q-0.59375 0.453125 -1.328125 0.65625l0 0.125q0.796875 0.046875 1.546875 0.5625q0.75 0.5 1.234375 1.40625q0.484375 0.890625 0.484375 2.140625q0 1.25 -0.5625 2.234375q-0.5625 0.96875 -1.703125 1.53125q-1.140625 0.5625 -2.921875 0.5625l-5.859375 0zm1.5 -1.359375l4.359375 0q1.90625 0 2.8125 -0.84375q0.921875 -0.84375 0.921875 -2.125q0 -0.9375 -0.453125 -1.703125q-0.453125 -0.765625 -1.28125 -1.21875q-0.8125 -0.453125 -1.921875 -0.453125l-4.4375 0l0 6.34375zm0 -7.671875l4.203125 0q0.96875 0 1.703125 -0.40625q0.734375 -0.40625 1.140625 -1.109375q0.40625 -0.703125 0.40625 -1.625q0 -1.296875 -0.859375 -2.125q-0.84375 -0.828125 -2.53125 -0.828125l-4.0625 0l0 6.09375zm16.32306 9.3125q-1.125 0 -2.046875 -0.4375q-0.921875 -0.4375 -1.46875 -1.265625q-0.546875 -0.84375 -0.546875 -2.03125q0 -0.921875 0.34375 -1.546875q0.34375 -0.625 0.984375 -1.015625q0.640625 -0.40625 1.5 -0.640625q0.875 -0.234375 1.921875 -0.375q1.03125 -0.125 1.75 -0.21875q0.71875 -0.09375 1.09375 -0.296875q0.390625 -0.21875 0.390625 -0.6875l0 -0.28125q0 -1.265625 -0.765625 -1.984375q-0.75 -0.734375 -2.15625 -0.734375q-1.328125 0 -2.171875 0.59375q-0.84375 0.578125 -1.171875 1.375l-1.359375 -0.5q0.40625 -1.0 1.140625 -1.609375q0.75 -0.609375 1.65625 -0.875q0.921875 -0.28125 1.875 -0.28125q0.703125 0 1.46875 0.1875q0.765625 0.1875 1.421875 0.640625q0.671875 0.453125 1.078125 1.265625q0.40625 0.8125 0.40625 2.046875l0 8.390625l-1.421875 0l0 -1.953125l-0.09375 0q-0.25 0.546875 -0.765625 1.0625q-0.5 0.515625 -1.265625 0.84375q-0.765625 0.328125 -1.796875 0.328125zm0.1875 -1.3125q1.140625 0 1.96875 -0.5q0.84375 -0.515625 1.296875 -1.34375q0.46875 -0.84375 0.46875 -1.859375l0 -1.796875q-0.171875 0.15625 -0.546875 0.28125q-0.375 0.125 -0.859375 0.21875q-0.484375 0.078125 -0.96875 0.15625q-0.484375 0.0625 -0.859375 0.109375q-1.046875 0.125 -1.796875 0.40625q-0.734375 0.265625 -1.125 0.75q-0.390625 0.46875 -0.390625 1.21875q0 1.125 0.796875 1.75q0.8125 0.609375 2.015625 0.609375zm10.404083 -15.453125l0 16.484375l-1.4375 0l0 -16.484375l1.4375 0zm7.229065 16.765625q-1.125 0 -2.046875 -0.4375q-0.921875 -0.4375 -1.46875 -1.265625q-0.546875 -0.84375 -0.546875 -2.03125q0 -0.921875 0.34375 -1.546875q0.34375 -0.625 0.984375 -1.015625q0.640625 -0.40625 1.5 -0.640625q0.875 -0.234375 1.921875 -0.375q1.03125 -0.125 1.75 -0.21875q0.71875 -0.09375 1.09375 -0.296875q0.390625 -0.21875 0.390625 -0.6875l0 -0.28125q0 -1.265625 -0.765625 -1.984375q-0.75 -0.734375 -2.15625 -0.734375q-1.328125 0 -2.171875 0.59375q-0.84375 0.578125 -1.171875 1.375l-1.359375 -0.5q0.40625 -1.0 1.140625 -1.609375q0.75 -0.609375 1.65625 -0.875q0.921875 -0.28125 1.875 -0.28125q0.703125 0 1.46875 0.1875q0.765625 0.1875 1.421875 0.640625q0.671875 0.453125 1.078125 1.265625q0.40625 0.8125 0.40625 2.046875l0 8.390625l-1.421875 0l0 -1.953125l-0.09375 0q-0.25 0.546875 -0.765625 1.0625q-0.5 0.515625 -1.265625 0.84375q-0.765625 0.328125 -1.796875 0.328125zm0.1875 -1.3125q1.140625 0 1.96875 -0.5q0.84375 -0.515625 1.296875 -1.34375q0.46875 -0.84375 0.46875 -1.859375l0 -1.796875q-0.171875 0.15625 -0.546875 0.28125q-0.375 0.125 -0.859375 0.21875q-0.484375 0.078125 -0.96875 0.15625q-0.484375 0.0625 -0.859375 0.109375q-1.046875 0.125 -1.796875 0.40625q-0.734375 0.265625 -1.125 0.75q-0.390625 0.46875 -0.390625 1.21875q0 1.125 0.796875 1.75q0.8125 0.609375 2.015625 0.609375zm10.404053 -6.6875l0 7.71875l-1.4375 0l0 -12.359375l1.390625 0l0 1.9375l0.125 0q0.4375 -0.953125 1.359375 -1.515625q0.921875 -0.578125 2.28125 -0.578125q1.25 0 2.1875 0.515625q0.953125 0.515625 1.46875 1.53125q0.53125 1.0 0.53125 2.46875l0 8.0l-1.421875 0l0 -7.921875q0 -1.515625 -0.859375 -2.390625q-0.84375 -0.890625 -2.265625 -0.890625q-0.96875 0 -1.734375 0.421875q-0.75 0.40625 -1.1875 1.203125q-0.4375 0.78125 -0.4375 1.859375zm16.520782 7.96875q-1.65625 0 -2.890625 -0.828125q-1.21875 -0.828125 -1.90625 -2.265625q-0.671875 -1.4375 -0.671875 -3.28125q0 -1.859375 0.6875 -3.296875q0.6875 -1.453125 1.90625 -2.28125q1.234375 -0.828125 2.84375 -0.828125q1.25 0 2.25 0.484375q1.0 0.484375 1.65625 1.34375q0.65625 0.859375 0.828125 2.015625l-1.453125 0q-0.21875 -1.046875 -1.078125 -1.78125q-0.859375 -0.75 -2.171875 -0.75q-1.1875 0 -2.09375 0.640625q-0.90625 0.640625 -1.421875 1.78125q-0.515625 1.125 -0.515625 2.625q0 1.5 0.5 2.65625q0.5 1.15625 1.40625 1.8125q0.90625 0.65625 2.125 0.65625q0.8125 0 1.484375 -0.3125q0.6875 -0.3125 1.15625 -0.875q0.46875 -0.578125 0.625 -1.375l1.453125 0q-0.171875 1.125 -0.796875 2.0q-0.625 0.875 -1.640625 1.375q-1.0 0.484375 -2.28125 0.484375zm12.779083 0q-1.734375 0 -3.0 -0.796875q-1.265625 -0.8125 -1.953125 -2.25q-0.6875 -1.4375 -0.6875 -3.3125q0 -1.859375 0.6875 -3.3125q0.6875 -1.453125 1.90625 -2.28125q1.21875 -0.828125 2.828125 -0.828125q1.0 0 1.9375 0.375q0.9375 0.359375 1.671875 1.109375q0.75 0.75 1.1875 1.890625q0.4375 1.140625 0.4375 2.703125l0 0.703125l-9.65625 0l0 -1.265625l8.1875 0q0 -1.1875 -0.484375 -2.140625q-0.46875 -0.953125 -1.328125 -1.5q-0.84375 -0.5625 -1.953125 -0.5625q-1.171875 0 -2.078125 0.625q-0.890625 0.625 -1.390625 1.65625q-0.5 1.03125 -0.515625 2.25l0 0.765625q0 1.46875 0.515625 2.5625q0.515625 1.09375 1.453125 1.703125q0.9375 0.609375 2.234375 0.609375q0.875 0 1.53125 -0.265625q0.671875 -0.28125 1.125 -0.75q0.453125 -0.46875 0.6875 -1.015625l1.359375 0.4375q-0.28125 0.78125 -0.921875 1.453125q-0.640625 0.65625 -1.59375 1.046875q-0.953125 0.390625 -2.1875 0.390625zm8.154266 -0.25l0 -12.359375l1.390625 0l0 1.90625l0.109375 0q0.359375 -0.9375 1.28125 -1.515625q0.921875 -0.578125 2.09375 -0.578125q0.171875 0 0.390625 0.015625q0.21875 0 0.359375 0.015625l0 1.453125q-0.09375 -0.015625 -0.34375 -0.046875q-0.234375 -0.03125 -0.515625 -0.03125q-0.953125 0 -1.71875 0.40625q-0.75 0.40625 -1.1875 1.125q-0.421875 0.71875 -0.421875 1.625l0 7.984375l-1.4375 0z" fill-rule="nonzero"/><path fill="#000000" fill-opacity="0.0" d="m392.76828 454.6198c0 36.126007 -25.881897 54.188995 -51.763794 72.25195c-25.881866 18.06305 -51.763763 36.126038 -51.763763 72.252014" fill-rule="evenodd"/><path stroke="#7183d9" stroke-width="2.0" stroke-linejoin="round" stroke-linecap="butt" d="m392.76828 454.61984c0 36.125977 -25.881866 54.188965 -51.763794 72.25198c-12.9409485 9.031494 -25.881897 18.062988 -35.587585 29.352356c-4.8528748 5.6446533 -8.896912 11.853821 -11.727753 18.909668c-1.4154053 3.527954 -2.5275269 7.267578 -3.2857666 11.254089c-0.0473938 0.24914551 -0.09341431 0.49926758 -0.138031 0.7503662l-0.0049438477 0.028869629" fill-rule="evenodd"/><path fill="#7183d9" stroke="#7183d9" stroke-width="2.0" stroke-linecap="butt" d="m286.9689 586.8865l2.5202637 9.324036l4.0627747 -8.762634z" fill-rule="evenodd"/><path fill="#000000" fill-opacity="0.0" d="m392.76828 454.6198c0 36.126007 25.881897 54.188995 51.763763 72.25195c25.881897 18.06305 51.763794 36.126038 51.763794 72.252014" fill-rule="evenodd"/><path stroke="#7183d9" stroke-width="2.0" stroke-linejoin="round" stroke-linecap="butt" d="m392.76828 454.61984c0 36.125977 25.881897 54.188965 51.763794 72.25198c12.9409485 9.031494 25.881897 18.062988 35.587585 29.352356c4.8528748 5.6446533 8.896912 11.853821 11.727753 18.909668c1.4153748 3.527954 2.5274963 7.267578 3.285797 11.254089c0.04736328 0.24914551 0.09338379 0.49926758 0.13800049 0.7503662l0.0049438477 0.028869629" fill-rule="evenodd"/><path fill="#7183d9" stroke="#7183d9" stroke-width="2.0" stroke-linecap="butt" d="m491.98462 587.4479l4.0627747 8.762634l2.5202637 -9.324036z" fill-rule="evenodd"/><path fill="#111c4e" d="m706.04504 599.11426l155.33862 0l0 93.543274l-155.33862 0z" fill-rule="evenodd"/><path stroke="#7183d9" stroke-width="2.0" stroke-linejoin="round" stroke-linecap="butt" d="m706.04504 599.11426l155.33862 0l0 93.543274l-155.33862 0z" fill-rule="evenodd"/><path fill="#ffffff" d="m739.6418 622.1134q-0.1875 -0.625 -0.515625 -1.09375q-0.3125 -0.484375 -0.78125 -0.828125q-0.46875 -0.34375 -1.0625 -0.515625q-0.578125 -0.171875 -1.296875 -0.171875q-1.34375 0 -2.359375 0.671875q-1.0 0.65625 -1.5625 1.921875q-0.5625 1.265625 -0.5625 3.078125q0 1.828125 0.546875 3.109375q0.5625 1.28125 1.578125 1.953125q1.015625 0.65625 2.390625 0.65625q1.25 0 2.140625 -0.4375q0.890625 -0.453125 1.359375 -1.265625q0.484375 -0.828125 0.484375 -1.9375l0.75 0.109375l-4.5 0l0 -2.78125l7.296875 0l0 2.203125q0 2.296875 -0.96875 3.953125q-0.96875 1.640625 -2.671875 2.53125q-1.703125 0.890625 -3.90625 0.890625q-2.453125 0 -4.3125 -1.078125q-1.859375 -1.09375 -2.90625 -3.09375q-1.03125 -2.015625 -1.03125 -4.765625q0 -2.125 0.625 -3.796875q0.625 -1.671875 1.734375 -2.828125q1.109375 -1.15625 2.59375 -1.75q1.484375 -0.609375 3.21875 -0.609375q1.484375 0 2.765625 0.4375q1.28125 0.421875 2.265625 1.203125q1.0 0.78125 1.625 1.859375q0.625 1.078125 0.8125 2.375l-3.75 0zm8.740051 12.03125q-0.84375 0 -1.453125 -0.59375q-0.59375 -0.609375 -0.59375 -1.453125q0 -0.828125 0.59375 -1.421875q0.609375 -0.609375 1.453125 -0.609375q0.8125 0 1.421875 0.609375q0.609375 0.59375 0.609375 1.421875q0 0.5625 -0.28125 1.03125q-0.28125 0.46875 -0.75 0.75q-0.453125 0.265625 -1.0 0.265625zm5.01709 -0.21875l0 -13.09375l3.625 0l0 13.09375l-3.625 0zm1.8125 -14.78125q-0.796875 0 -1.375 -0.53125q-0.578125 -0.546875 -0.578125 -1.3125q0 -0.75 0.578125 -1.28125q0.578125 -0.546875 1.375 -0.546875q0.8125 0 1.390625 0.546875q0.578125 0.53125 0.578125 1.28125q0 0.765625 -0.578125 1.3125q-0.578125 0.53125 -1.390625 0.53125zm10.622192 15.03125q-1.984375 0 -3.4375 -0.84375q-1.4375 -0.84375 -2.21875 -2.359375q-0.78125 -1.53125 -0.78125 -3.546875q0 -2.015625 0.78125 -3.53125q0.78125 -1.53125 2.21875 -2.375q1.453125 -0.859375 3.4375 -0.859375q1.984375 0 3.421875 0.859375q1.453125 0.84375 2.234375 2.375q0.796875 1.515625 0.796875 3.53125q0 2.015625 -0.796875 3.546875q-0.78125 1.515625 -2.234375 2.359375q-1.4375 0.84375 -3.421875 0.84375zm0.015625 -2.8125q0.90625 0 1.515625 -0.515625q0.609375 -0.515625 0.90625 -1.40625q0.3125 -0.890625 0.3125 -2.03125q0 -1.140625 -0.3125 -2.03125q-0.296875 -0.90625 -0.90625 -1.421875q-0.609375 -0.515625 -1.515625 -0.515625q-0.90625 0 -1.53125 0.515625q-0.609375 0.515625 -0.921875 1.421875q-0.3125 0.890625 -0.3125 2.03125q0 1.140625 0.3125 2.03125q0.3125 0.890625 0.921875 1.40625q0.625 0.515625 1.53125 0.515625zm17.448914 2.5625l-3.953125 0l6.015625 -17.453125l4.765625 0l6.015625 17.453125l-3.953125 0l-4.375 -13.46875l-0.140625 0l-4.375 13.46875zm-0.25 -6.859375l9.34375 0l0 2.875l-9.34375 0l0 -2.875zm15.183289 6.859375l0 -17.453125l6.890625 0q1.984375 0 3.375 0.75q1.40625 0.75 2.140625 2.09375q0.734375 1.328125 0.734375 3.0625q0 1.75 -0.75 3.078125q-0.75 1.328125 -2.171875 2.078125q-1.40625 0.734375 -3.421875 0.734375l-4.390625 0l0 -2.953125l3.796875 0q1.0625 0 1.75 -0.375q0.703125 -0.375 1.046875 -1.03125q0.34375 -0.65625 0.34375 -1.53125q0 -0.859375 -0.34375 -1.515625q-0.34375 -0.65625 -1.046875 -1.015625q-0.703125 -0.359375 -1.765625 -0.359375l-2.5 0l0 14.4375l-3.6875 0zm19.232971 -17.453125l0 17.453125l-3.6875 0l0 -17.453125l3.6875 0zm2.9829712 17.453125l0 -13.09375l3.453125 0l0 2.3125l0.15625 0q0.40625 -1.15625 1.359375 -1.8125q0.953125 -0.671875 2.28125 -0.671875q1.359375 0 2.296875 0.671875q0.953125 0.671875 1.265625 1.8125l0.140625 0q0.390625 -1.125 1.4375 -1.796875q1.0625 -0.6875 2.5 -0.6875q1.828125 0 2.96875 1.171875q1.15625 1.15625 1.15625 3.296875l0 8.796875l-3.625 0l0 -8.09375q0 -1.078125 -0.578125 -1.625q-0.578125 -0.546875 -1.4375 -0.546875q-1.0 0 -1.5625 0.625q-0.546875 0.625 -0.546875 1.640625l0 8.0l-3.515625 0l0 -8.171875q0 -0.953125 -0.546875 -1.515625q-0.546875 -0.578125 -1.453125 -0.578125q-0.59375 0 -1.078125 0.296875q-0.484375 0.296875 -0.765625 0.84375q-0.28125 0.546875 -0.28125 1.265625l0 7.859375l-3.625 0z" fill-rule="nonzero"/><path fill="#ffffff" d="m745.0452 657.1134q-0.1875 -0.625 -0.515625 -1.09375q-0.3125 -0.484375 -0.78125 -0.828125q-0.46875 -0.34375 -1.0625 -0.515625q-0.578125 -0.171875 -1.296875 -0.171875q-1.34375 0 -2.359375 0.671875q-1.0 0.65625 -1.5625 1.921875q-0.5625 1.265625 -0.5625 3.078125q0 1.828125 0.546875 3.109375q0.5625 1.28125 1.578125 1.953125q1.015625 0.65625 2.390625 0.65625q1.25 0 2.140625 -0.4375q0.890625 -0.453125 1.359375 -1.265625q0.484375 -0.828125 0.484375 -1.9375l0.75 0.109375l-4.5 0l0 -2.78125l7.296875 0l0 2.203125q0 2.296875 -0.96875 3.953125q-0.96875 1.640625 -2.671875 2.53125q-1.703125 0.890625 -3.90625 0.890625q-2.453125 0 -4.3125 -1.078125q-1.859375 -1.09375 -2.90625 -3.09375q-1.03125 -2.015625 -1.03125 -4.765625q0 -2.125 0.625 -3.796875q0.625 -1.671875 1.734375 -2.828125q1.109375 -1.15625 2.59375 -1.75q1.484375 -0.609375 3.21875 -0.609375q1.484375 0 2.765625 0.4375q1.28125 0.421875 2.265625 1.203125q1.0 0.78125 1.625 1.859375q0.625 1.078125 0.8125 2.375l-3.75 0zm10.349426 12.0625q-1.265625 0 -2.25 -0.4375q-0.96875 -0.4375 -1.546875 -1.296875q-0.5625 -0.875 -0.5625 -2.171875q0 -1.09375 0.40625 -1.828125q0.40625 -0.75 1.09375 -1.203125q0.6875 -0.453125 1.5625 -0.671875q0.890625 -0.234375 1.859375 -0.328125q1.140625 -0.125 1.84375 -0.21875q0.703125 -0.109375 1.015625 -0.328125q0.3125 -0.21875 0.3125 -0.625l0 -0.0625q0 -0.796875 -0.515625 -1.234375q-0.5 -0.453125 -1.421875 -0.453125q-0.984375 0 -1.5625 0.4375q-0.578125 0.421875 -0.765625 1.0625l-3.359375 -0.265625q0.25 -1.1875 1.0 -2.0625q0.75 -0.875 1.9375 -1.34375q1.1875 -0.484375 2.765625 -0.484375q1.09375 0 2.09375 0.265625q1.0 0.25 1.78125 0.796875q0.78125 0.53125 1.21875 1.375q0.453125 0.828125 0.453125 2.0l0 8.828125l-3.4375 0l0 -1.8125l-0.09375 0q-0.328125 0.609375 -0.859375 1.078125q-0.515625 0.46875 -1.265625 0.734375q-0.734375 0.25 -1.703125 0.25zm1.03125 -2.515625q0.796875 0 1.40625 -0.3125q0.625 -0.3125 0.96875 -0.859375q0.359375 -0.546875 0.359375 -1.234375l0 -1.390625q-0.171875 0.109375 -0.46875 0.203125q-0.296875 0.078125 -0.671875 0.15625q-0.359375 0.0625 -0.734375 0.125q-0.359375 0.0625 -0.65625 0.09375q-0.640625 0.09375 -1.125 0.296875q-0.46875 0.203125 -0.734375 0.5625q-0.265625 0.34375 -0.265625 0.84375q0 0.75 0.546875 1.140625q0.546875 0.375 1.375 0.375zm16.113708 -10.828125l0 2.734375l-7.875 0l0 -2.734375l7.875 0zm-6.09375 -3.140625l3.640625 0l0 12.21875q0 0.5 0.140625 0.78125q0.15625 0.265625 0.4375 0.375q0.28125 0.109375 0.640625 0.109375q0.265625 0 0.515625 -0.046875q0.25 -0.046875 0.390625 -0.0625l0.578125 2.703125q-0.28125 0.078125 -0.78125 0.1875q-0.484375 0.125 -1.1875 0.140625q-1.3125 0.0625 -2.296875 -0.34375q-0.984375 -0.40625 -1.53125 -1.25q-0.546875 -0.84375 -0.546875 -2.125l0 -12.6875zm14.296875 16.484375q-2.03125 0 -3.484375 -0.8125q-1.453125 -0.828125 -2.234375 -2.34375q-0.78125 -1.515625 -0.78125 -3.578125q0 -2.015625 0.78125 -3.546875q0.78125 -1.53125 2.203125 -2.375q1.4375 -0.859375 3.359375 -0.859375q1.296875 0 2.421875 0.421875q1.125 0.40625 1.953125 1.234375q0.84375 0.828125 1.3125 2.078125q0.46875 1.25 0.46875 2.921875l0 1.0l-11.046875 0l0 -2.25l7.625 0q0 -0.796875 -0.34375 -1.390625q-0.328125 -0.609375 -0.9375 -0.953125q-0.59375 -0.34375 -1.390625 -0.34375q-0.828125 0 -1.46875 0.375q-0.625 0.375 -0.984375 1.015625q-0.359375 0.640625 -0.359375 1.40625l0 2.140625q0 0.96875 0.359375 1.6875q0.359375 0.703125 1.015625 1.09375q0.671875 0.375 1.578125 0.375q0.609375 0 1.109375 -0.171875q0.5 -0.171875 0.859375 -0.515625q0.359375 -0.34375 0.546875 -0.828125l3.359375 0.21875q-0.25 1.203125 -1.046875 2.109375q-0.78125 0.90625 -2.03125 1.40625q-1.234375 0.484375 -2.84375 0.484375zm10.850891 -0.25l-3.5625 -13.09375l3.671875 0l2.03125 8.796875l0.125 0l2.109375 -8.796875l3.609375 0l2.140625 8.75l0.109375 0l2.0 -8.75l3.65625 0l-3.546875 13.09375l-3.84375 0l-2.25 -8.234375l-0.171875 0l-2.25 8.234375l-3.828125 0zm21.559692 0.25q-1.265625 0 -2.25 -0.4375q-0.96875 -0.4375 -1.546875 -1.296875q-0.5625 -0.875 -0.5625 -2.171875q0 -1.09375 0.40625 -1.828125q0.40625 -0.75 1.09375 -1.203125q0.6875 -0.453125 1.5625 -0.671875q0.890625 -0.234375 1.859375 -0.328125q1.140625 -0.125 1.84375 -0.21875q0.703125 -0.109375 1.015625 -0.328125q0.3125 -0.21875 0.3125 -0.625l0 -0.0625q0 -0.796875 -0.515625 -1.234375q-0.5 -0.453125 -1.421875 -0.453125q-0.984375 0 -1.5625 0.4375q-0.578125 0.421875 -0.765625 1.0625l-3.359375 -0.265625q0.25 -1.1875 1.0 -2.0625q0.75 -0.875 1.9375 -1.34375q1.1875 -0.484375 2.765625 -0.484375q1.09375 0 2.09375 0.265625q1.0 0.25 1.78125 0.796875q0.78125 0.53125 1.21875 1.375q0.453125 0.828125 0.453125 2.0l0 8.828125l-3.4375 0l0 -1.8125l-0.09375 0q-0.328125 0.609375 -0.859375 1.078125q-0.515625 0.46875 -1.265625 0.734375q-0.734375 0.25 -1.703125 0.25zm1.03125 -2.515625q0.796875 0 1.40625 -0.3125q0.625 -0.3125 0.96875 -0.859375q0.359375 -0.546875 0.359375 -1.234375l0 -1.390625q-0.171875 0.109375 -0.46875 0.203125q-0.296875 0.078125 -0.671875 0.15625q-0.359375 0.0625 -0.734375 0.125q-0.359375 0.0625 -0.65625 0.09375q-0.640625 0.09375 -1.125 0.296875q-0.46875 0.203125 -0.734375 0.5625q-0.265625 0.34375 -0.265625 0.84375q0 0.75 0.546875 1.140625q0.546875 0.375 1.375 0.375zm10.917664 7.171875q-0.6875 0 -1.296875 -0.109375q-0.59375 -0.09375 -0.984375 -0.265625l0.8125 -2.703125q0.640625 0.1875 1.15625 0.203125q0.515625 0.015625 0.890625 -0.234375q0.390625 -0.25 0.625 -0.875l0.21875 -0.546875l-4.703125 -13.46875l3.828125 0l2.703125 9.609375l0.140625 0l2.734375 -9.609375l3.84375 0l-5.09375 14.515625q-0.359375 1.046875 -0.984375 1.828125q-0.625 0.796875 -1.59375 1.21875q-0.953125 0.4375 -2.296875 0.4375z" fill-rule="nonzero"/><path fill="#111c4e" d="m913.07886 599.11426l155.33862 0l0 93.543274l-155.33862 0z" fill-rule="evenodd"/><path stroke="#7183d9" stroke-width="2.0" stroke-linejoin="round" stroke-linecap="butt" stroke-dasharray="2.0,6.0" d="m913.07886 599.11426l155.33862 0l0 93.543274l-155.33862 0z" fill-rule="evenodd"/><path fill="#ffffff" d="m946.67554 622.1134q-0.1875 -0.625 -0.515625 -1.09375q-0.3125 -0.484375 -0.78125 -0.828125q-0.46875 -0.34375 -1.0625 -0.515625q-0.578125 -0.171875 -1.296875 -0.171875q-1.34375 0 -2.359375 0.671875q-1.0 0.65625 -1.5625 1.921875q-0.5625 1.265625 -0.5625 3.078125q0 1.828125 0.546875 3.109375q0.5625 1.28125 1.578125 1.953125q1.015625 0.65625 2.390625 0.65625q1.25 0 2.140625 -0.4375q0.890625 -0.453125 1.359375 -1.265625q0.484375 -0.828125 0.484375 -1.9375l0.75 0.109375l-4.5 0l0 -2.78125l7.296875 0l0 2.203125q0 2.296875 -0.96875 3.953125q-0.96875 1.640625 -2.671875 2.53125q-1.703125 0.890625 -3.90625 0.890625q-2.453125 0 -4.3125 -1.078125q-1.859375 -1.09375 -2.90625 -3.09375q-1.03125 -2.015625 -1.03125 -4.765625q0 -2.125 0.625 -3.796875q0.625 -1.671875 1.734375 -2.828125q1.109375 -1.15625 2.59375 -1.75q1.484375 -0.609375 3.21875 -0.609375q1.484375 0 2.765625 0.4375q1.28125 0.421875 2.265625 1.203125q1.0 0.78125 1.625 1.859375q0.625 1.078125 0.8125 2.375l-3.75 0zm8.740112 12.03125q-0.84375 0 -1.453125 -0.59375q-0.59375 -0.609375 -0.59375 -1.453125q0 -0.828125 0.59375 -1.421875q0.609375 -0.609375 1.453125 -0.609375q0.8125 0 1.421875 0.609375q0.609375 0.59375 0.609375 1.421875q0 0.5625 -0.28125 1.03125q-0.28125 0.46875 -0.75 0.75q-0.453125 0.265625 -1.0 0.265625zm5.017029 -0.21875l0 -13.09375l3.625 0l0 13.09375l-3.625 0zm1.8125 -14.78125q-0.796875 0 -1.375 -0.53125q-0.578125 -0.546875 -0.578125 -1.3125q0 -0.75 0.578125 -1.28125q0.578125 -0.546875 1.375 -0.546875q0.8125 0 1.390625 0.546875q0.578125 0.53125 0.578125 1.28125q0 0.765625 -0.578125 1.3125q-0.578125 0.53125 -1.390625 0.53125zm10.622192 15.03125q-1.984375 0 -3.4375 -0.84375q-1.4375 -0.84375 -2.21875 -2.359375q-0.78125 -1.53125 -0.78125 -3.546875q0 -2.015625 0.78125 -3.53125q0.78125 -1.53125 2.21875 -2.375q1.453125 -0.859375 3.4375 -0.859375q1.984375 0 3.421875 0.859375q1.453125 0.84375 2.234375 2.375q0.796875 1.515625 0.796875 3.53125q0 2.015625 -0.796875 3.546875q-0.78125 1.515625 -2.234375 2.359375q-1.4375 0.84375 -3.421875 0.84375zm0.015625 -2.8125q0.90625 0 1.515625 -0.515625q0.609375 -0.515625 0.90625 -1.40625q0.3125 -0.890625 0.3125 -2.03125q0 -1.140625 -0.3125 -2.03125q-0.296875 -0.90625 -0.90625 -1.421875q-0.609375 -0.515625 -1.515625 -0.515625q-0.90625 0 -1.53125 0.515625q-0.609375 0.515625 -0.921875 1.421875q-0.3125 0.890625 -0.3125 2.03125q0 1.140625 0.3125 2.03125q0.3125 0.890625 0.921875 1.40625q0.625 0.515625 1.53125 0.515625zm17.448914 2.5625l-3.953125 0l6.015625 -17.453125l4.765625 0l6.015625 17.453125l-3.953125 0l-4.375 -13.46875l-0.140625 0l-4.375 13.46875zm-0.25 -6.859375l9.34375 0l0 2.875l-9.34375 0l0 -2.875zm15.183289 6.859375l0 -17.453125l6.890625 0q1.984375 0 3.375 0.75q1.40625 0.75 2.140625 2.09375q0.734375 1.328125 0.734375 3.0625q0 1.75 -0.75 3.078125q-0.75 1.328125 -2.171875 2.078125q-1.40625 0.734375 -3.421875 0.734375l-4.390625 0l0 -2.953125l3.796875 0q1.0625 0 1.75 -0.375q0.703125 -0.375 1.046875 -1.03125q0.34375 -0.65625 0.34375 -1.53125q0 -0.859375 -0.34375 -1.515625q-0.34375 -0.65625 -1.046875 -1.015625q-0.703125 -0.359375 -1.765625 -0.359375l-2.5 0l0 14.4375l-3.6875 0zm19.232971 -17.453125l0 17.453125l-3.687439 0l0 -17.453125l3.687439 0zm2.9830322 17.453125l0 -13.09375l3.453125 0l0 2.3125l0.15625 0q0.40625 -1.15625 1.359375 -1.8125q0.953125 -0.671875 2.28125 -0.671875q1.359375 0 2.296875 0.671875q0.953125 0.671875 1.265625 1.8125l0.140625 0q0.390625 -1.125 1.4375 -1.796875q1.0625 -0.6875 2.5 -0.6875q1.828125 0 2.96875 1.171875q1.15625 1.15625 1.15625 3.296875l0 8.796875l-3.625 0l0 -8.09375q0 -1.078125 -0.578125 -1.625q-0.578125 -0.546875 -1.4375 -0.546875q-1.0 0 -1.5625 0.625q-0.546875 0.625 -0.546875 1.640625l0 8.0l-3.515625 0l0 -8.171875q0 -0.953125 -0.546875 -1.515625q-0.546875 -0.578125 -1.453125 -0.578125q-0.59375 0 -1.078125 0.296875q-0.484375 0.296875 -0.765625 0.84375q-0.28125 0.546875 -0.28125 1.265625l0 7.859375l-3.625 0z" fill-rule="nonzero"/><path fill="#ffffff" d="m952.079 657.1134q-0.1875 -0.625 -0.515625 -1.09375q-0.3125 -0.484375 -0.78125 -0.828125q-0.46875 -0.34375 -1.0625 -0.515625q-0.578125 -0.171875 -1.296875 -0.171875q-1.34375 0 -2.359375 0.671875q-1.0 0.65625 -1.5625 1.921875q-0.5625 1.265625 -0.5625 3.078125q0 1.828125 0.546875 3.109375q0.5625 1.28125 1.578125 1.953125q1.015625 0.65625 2.390625 0.65625q1.25 0 2.140625 -0.4375q0.890625 -0.453125 1.359375 -1.265625q0.484375 -0.828125 0.484375 -1.9375l0.75 0.109375l-4.5 0l0 -2.78125l7.296875 0l0 2.203125q0 2.296875 -0.96875 3.953125q-0.96875 1.640625 -2.671875 2.53125q-1.703125 0.890625 -3.90625 0.890625q-2.453125 0 -4.3125 -1.078125q-1.859375 -1.09375 -2.90625 -3.09375q-1.03125 -2.015625 -1.03125 -4.765625q0 -2.125 0.625 -3.796875q0.625 -1.671875 1.734375 -2.828125q1.109375 -1.15625 2.59375 -1.75q1.484375 -0.609375 3.21875 -0.609375q1.484375 0 2.765625 0.4375q1.28125 0.421875 2.265625 1.203125q1.0 0.78125 1.625 1.859375q0.625 1.078125 0.8125 2.375l-3.75 0zm10.349487 12.0625q-1.265625 0 -2.25 -0.4375q-0.96875 -0.4375 -1.546875 -1.296875q-0.5625 -0.875 -0.5625 -2.171875q0 -1.09375 0.40625 -1.828125q0.40625 -0.75 1.09375 -1.203125q0.6875 -0.453125 1.5625 -0.671875q0.890625 -0.234375 1.859375 -0.328125q1.140625 -0.125 1.84375 -0.21875q0.703125 -0.109375 1.015625 -0.328125q0.3125 -0.21875 0.3125 -0.625l0 -0.0625q0 -0.796875 -0.515625 -1.234375q-0.5 -0.453125 -1.421875 -0.453125q-0.984375 0 -1.5625 0.4375q-0.578125 0.421875 -0.765625 1.0625l-3.359375 -0.265625q0.25 -1.1875 1.0 -2.0625q0.75 -0.875 1.9375 -1.34375q1.1875 -0.484375 2.765625 -0.484375q1.09375 0 2.09375 0.265625q1.0 0.25 1.78125 0.796875q0.78125 0.53125 1.21875 1.375q0.453125 0.828125 0.453125 2.0l0 8.828125l-3.4375 0l0 -1.8125l-0.09375 0q-0.328125 0.609375 -0.859375 1.078125q-0.515625 0.46875 -1.265625 0.734375q-0.734375 0.25 -1.703125 0.25zm1.03125 -2.515625q0.796875 0 1.40625 -0.3125q0.625 -0.3125 0.96875 -0.859375q0.359375 -0.546875 0.359375 -1.234375l0 -1.390625q-0.171875 0.109375 -0.46875 0.203125q-0.296875 0.078125 -0.671875 0.15625q-0.359375 0.0625 -0.734375 0.125q-0.359375 0.0625 -0.65625 0.09375q-0.640625 0.09375 -1.125 0.296875q-0.46875 0.203125 -0.734375 0.5625q-0.265625 0.34375 -0.265625 0.84375q0 0.75 0.546875 1.140625q0.546875 0.375 1.375 0.375zm16.113647 -10.828125l0 2.734375l-7.875 0l0 -2.734375l7.875 0zm-6.09375 -3.140625l3.640625 0l0 12.21875q0 0.5 0.140625 0.78125q0.15625 0.265625 0.4375 0.375q0.28125 0.109375 0.640625 0.109375q0.265625 0 0.515625 -0.046875q0.25 -0.046875 0.390625 -0.0625l0.578125 2.703125q-0.28125 0.078125 -0.78125 0.1875q-0.484375 0.125 -1.1875 0.140625q-1.3125 0.0625 -2.296875 -0.34375q-0.984375 -0.40625 -1.53125 -1.25q-0.546875 -0.84375 -0.546875 -2.125l0 -12.6875zm14.296936 16.484375q-2.03125 0 -3.484375 -0.8125q-1.453125 -0.828125 -2.234375 -2.34375q-0.78125 -1.515625 -0.78125 -3.578125q0 -2.015625 0.78125 -3.546875q0.78125 -1.53125 2.203125 -2.375q1.4375 -0.859375 3.359375 -0.859375q1.296875 0 2.421875 0.421875q1.125 0.40625 1.953125 1.234375q0.84375 0.828125 1.3125 2.078125q0.46875 1.25 0.46875 2.921875l0 1.0l-11.046875 0l0 -2.25l7.625 0q0 -0.796875 -0.34375 -1.390625q-0.328125 -0.609375 -0.9375 -0.953125q-0.59375 -0.34375 -1.390625 -0.34375q-0.828125 0 -1.46875 0.375q-0.625 0.375 -0.984375 1.015625q-0.359375 0.640625 -0.359375 1.40625l0 2.140625q0 0.96875 0.359375 1.6875q0.359375 0.703125 1.015625 1.09375q0.671875 0.375 1.578125 0.375q0.609375 0 1.109375 -0.171875q0.5 -0.171875 0.859375 -0.515625q0.359375 -0.34375 0.546875 -0.828125l3.359375 0.21875q-0.25 1.203125 -1.046875 2.109375q-0.78125 0.90625 -2.03125 1.40625q-1.234375 0.484375 -2.84375 0.484375zm10.85083 -0.25l-3.5625 -13.09375l3.671875 0l2.03125 8.796875l0.125 0l2.109375 -8.796875l3.609375 0l2.140625 8.75l0.109375 0l2.0 -8.75l3.65625 0l-3.546875 13.09375l-3.84375 0l-2.25 -8.234375l-0.171875 0l-2.25 8.234375l-3.828125 0zm21.559753 0.25q-1.265625 0 -2.25 -0.4375q-0.96875 -0.4375 -1.546875 -1.296875q-0.5625 -0.875 -0.5625 -2.171875q0 -1.09375 0.40625 -1.828125q0.40625 -0.75 1.09375 -1.203125q0.6875 -0.453125 1.5625 -0.671875q0.890625 -0.234375 1.859375 -0.328125q1.140625 -0.125 1.84375 -0.21875q0.703125 -0.109375 1.015625 -0.328125q0.3125 -0.21875 0.3125 -0.625l0 -0.0625q0 -0.796875 -0.515625 -1.234375q-0.5 -0.453125 -1.421875 -0.453125q-0.984375 0 -1.5625 0.4375q-0.578125 0.421875 -0.765625 1.0625l-3.359375 -0.265625q0.25 -1.1875 1.0 -2.0625q0.75 -0.875 1.9375 -1.34375q1.1875 -0.484375 2.765625 -0.484375q1.09375 0 2.09375 0.265625q1.0 0.25 1.78125 0.796875q0.78125 0.53125 1.21875 1.375q0.453125 0.828125 0.453125 2.0l0 8.828125l-3.4375 0l0 -1.8125l-0.09375 0q-0.328125 0.609375 -0.859375 1.078125q-0.515625 0.46875 -1.265625 0.734375q-0.734375 0.25 -1.703125 0.25zm1.03125 -2.515625q0.796875 0 1.40625 -0.3125q0.625 -0.3125 0.96875 -0.859375q0.359375 -0.546875 0.359375 -1.234375l0 -1.390625q-0.171875 0.109375 -0.46875 0.203125q-0.296875 0.078125 -0.671875 0.15625q-0.359375 0.0625 -0.734375 0.125q-0.359375 0.0625 -0.65625 0.09375q-0.640625 0.09375 -1.125 0.296875q-0.46875 0.203125 -0.734375 0.5625q-0.265625 0.34375 -0.265625 0.84375q0 0.75 0.546875 1.140625q0.546875 0.375 1.375 0.375zm10.917603 7.171875q-0.6875 0 -1.296875 -0.109375q-0.59375 -0.09375 -0.984375 -0.265625l0.8125 -2.703125q0.640625 0.1875 1.15625 0.203125q0.515625 0.015625 0.890625 -0.234375q0.390625 -0.25 0.625 -0.875l0.21875 -0.546875l-4.703125 -13.46875l3.828125 0l2.703125 9.609375l0.140625 0l2.734375 -9.609375l3.84375 0l-5.09375 14.515625q-0.359375 1.046875 -0.984375 1.828125q-0.625 0.796875 -1.59375 1.21875q-0.953125 0.4375 -2.296875 0.4375z" fill-rule="nonzero"/><path fill="#111c4e" d="m809.56195 361.0765l155.33856 0l0 93.543304l-155.33856 0z" fill-rule="evenodd"/><path stroke="#7183d9" stroke-width="1.0" stroke-linejoin="round" stroke-linecap="butt" d="m809.56195 361.0765l155.33856 0l0 93.543304l-155.33856 0z" fill-rule="evenodd"/><path fill="#ffffff" d="m863.1021 396.60815l0 -16.484375l1.5 0l0 15.125l7.859375 0l0 1.359375l-9.359375 0zm17.243958 0.25q-1.59375 0 -2.828125 -0.8125q-1.21875 -0.8125 -1.921875 -2.234375q-0.6875 -1.4375 -0.6875 -3.328125q0 -1.890625 0.6875 -3.328125q0.703125 -1.453125 1.921875 -2.265625q1.234375 -0.8125 2.828125 -0.8125q1.609375 0 2.828125 0.8125q1.21875 0.8125 1.90625 2.265625q0.703125 1.4375 0.703125 3.328125q0 1.890625 -0.6875 3.328125q-0.6875 1.421875 -1.921875 2.234375q-1.21875 0.8125 -2.828125 0.8125zm0 -1.296875q1.296875 0 2.1875 -0.6875q0.890625 -0.703125 1.34375 -1.84375q0.46875 -1.15625 0.46875 -2.546875q0 -1.375 -0.46875 -2.53125q-0.453125 -1.171875 -1.34375 -1.859375q-0.890625 -0.703125 -2.1875 -0.703125q-1.265625 0 -2.171875 0.703125q-0.890625 0.6875 -1.359375 1.859375q-0.46875 1.15625 -0.46875 2.53125q0 1.390625 0.46875 2.546875q0.46875 1.140625 1.359375 1.84375q0.890625 0.6875 2.171875 0.6875zm12.043884 1.328125q-1.125 0 -2.046875 -0.4375q-0.921875 -0.4375 -1.46875 -1.265625q-0.546875 -0.84375 -0.546875 -2.03125q0 -0.921875 0.34375 -1.546875q0.34375 -0.625 0.984375 -1.015625q0.640625 -0.40625 1.5 -0.640625q0.875 -0.234375 1.921875 -0.375q1.03125 -0.125 1.75 -0.21875q0.71875 -0.09375 1.09375 -0.296875q0.390625 -0.21875 0.390625 -0.6875l0 -0.28125q0 -1.265625 -0.765625 -1.984375q-0.75 -0.734375 -2.15625 -0.734375q-1.328125 0 -2.171875 0.59375q-0.84375 0.578125 -1.171875 1.375l-1.359375 -0.5q0.40625 -1.0 1.140625 -1.609375q0.75 -0.609375 1.65625 -0.875q0.921875 -0.28125 1.875 -0.28125q0.703125 0 1.46875 0.1875q0.765625 0.1875 1.421875 0.640625q0.671875 0.453125 1.078125 1.265625q0.40625 0.8125 0.40625 2.046875l0 8.390625l-1.421875 0l0 -1.953125l-0.09375 0q-0.25 0.546875 -0.765625 1.0625q-0.5 0.515625 -1.265625 0.84375q-0.765625 0.328125 -1.796875 0.328125zm0.1875 -1.3125q1.140625 0 1.96875 -0.5q0.84375 -0.515625 1.296875 -1.34375q0.46875 -0.84375 0.46875 -1.859375l0 -1.796875q-0.171875 0.15625 -0.546875 0.28125q-0.375 0.125 -0.859375 0.21875q-0.484375 0.078125 -0.96875 0.15625q-0.484375 0.0625 -0.859375 0.109375q-1.046875 0.125 -1.796875 0.40625q-0.734375 0.265625 -1.125 0.75q-0.390625 0.46875 -0.390625 1.21875q0 1.125 0.796875 1.75q0.8125 0.609375 2.015625 0.609375zm13.419678 1.28125q-1.53125 0 -2.671875 -0.796875q-1.140625 -0.8125 -1.78125 -2.25q-0.640625 -1.4375 -0.640625 -3.34375q0 -1.90625 0.640625 -3.34375q0.640625 -1.4375 1.78125 -2.234375q1.15625 -0.8125 2.6875 -0.8125q1.125 0 1.875 0.40625q0.75 0.390625 1.203125 0.984375q0.453125 0.578125 0.703125 1.140625l0.125 0l0 -6.484375l1.4375 0l0 16.484375l-1.390625 0l0 -2.296875l-0.171875 0q-0.25 0.5625 -0.71875 1.15625q-0.453125 0.59375 -1.203125 1.0q-0.75 0.390625 -1.875 0.390625zm0.171875 -1.296875q1.1875 0 2.03125 -0.65625q0.84375 -0.65625 1.296875 -1.8125q0.453125 -1.15625 0.453125 -2.65625q0 -1.484375 -0.453125 -2.609375q-0.4375 -1.140625 -1.28125 -1.78125q-0.84375 -0.65625 -2.046875 -0.65625q-1.25 0 -2.09375 0.671875q-0.84375 0.671875 -1.296875 1.8125q-0.4375 1.140625 -0.4375 2.5625q0 1.4375 0.4375 2.609375q0.453125 1.15625 1.296875 1.84375q0.859375 0.671875 2.09375 0.671875z" fill-rule="nonzero"/><path fill="#ffffff" d="m843.3868 429.60815l0 -16.484375l5.5625 0q1.609375 0 2.671875 0.578125q1.078125 0.5625 1.609375 1.53125q0.546875 0.96875 0.546875 2.203125q0 1.03125 -0.34375 1.765625q-0.34375 0.734375 -0.9375 1.1875q-0.59375 0.453125 -1.328125 0.65625l0 0.125q0.796875 0.046875 1.546875 0.5625q0.75 0.5 1.234375 1.40625q0.484375 0.890625 0.484375 2.140625q0 1.25 -0.5625 2.234375q-0.5625 0.96875 -1.703125 1.53125q-1.140625 0.5625 -2.921875 0.5625l-5.859375 0zm1.5 -1.359375l4.359375 0q1.90625 0 2.8125 -0.84375q0.921875 -0.84375 0.921875 -2.125q0 -0.9375 -0.453125 -1.703125q-0.453125 -0.765625 -1.28125 -1.21875q-0.8125 -0.453125 -1.921875 -0.453125l-4.4375 0l0 6.34375zm0 -7.671875l4.203125 0q0.96875 0 1.703125 -0.40625q0.734375 -0.40625 1.140625 -1.109375q0.40625 -0.703125 0.40625 -1.625q0 -1.296875 -0.859375 -2.125q-0.84375 -0.828125 -2.53125 -0.828125l-4.0625 0l0 6.09375zm16.32306 9.3125q-1.125 0 -2.046875 -0.4375q-0.921875 -0.4375 -1.46875 -1.265625q-0.546875 -0.84375 -0.546875 -2.03125q0 -0.921875 0.34375 -1.546875q0.34375 -0.625 0.984375 -1.015625q0.640625 -0.40625 1.5 -0.640625q0.875 -0.234375 1.921875 -0.375q1.03125 -0.125 1.75 -0.21875q0.71875 -0.09375 1.09375 -0.296875q0.390625 -0.21875 0.390625 -0.6875l0 -0.28125q0 -1.265625 -0.765625 -1.984375q-0.75 -0.734375 -2.15625 -0.734375q-1.328125 0 -2.171875 0.59375q-0.84375 0.578125 -1.171875 1.375l-1.359375 -0.5q0.40625 -1.0 1.140625 -1.609375q0.75 -0.609375 1.65625 -0.875q0.921875 -0.28125 1.875 -0.28125q0.703125 0 1.46875 0.1875q0.765625 0.1875 1.421875 0.640625q0.671875 0.453125 1.078125 1.265625q0.40625 0.8125 0.40625 2.046875l0 8.390625l-1.421875 0l0 -1.953125l-0.09375 0q-0.25 0.546875 -0.765625 1.0625q-0.5 0.515625 -1.265625 0.84375q-0.765625 0.328125 -1.796875 0.328125zm0.1875 -1.3125q1.140625 0 1.96875 -0.5q0.84375 -0.515625 1.296875 -1.34375q0.46875 -0.84375 0.46875 -1.859375l0 -1.796875q-0.171875 0.15625 -0.546875 0.28125q-0.375 0.125 -0.859375 0.21875q-0.484375 0.078125 -0.96875 0.15625q-0.484375 0.0625 -0.859375 0.109375q-1.046875 0.125 -1.796875 0.40625q-0.734375 0.265625 -1.125 0.75q-0.390625 0.46875 -0.390625 1.21875q0 1.125 0.796875 1.75q0.8125 0.609375 2.015625 0.609375zm10.404114 -15.453125l0 16.484375l-1.4375 0l0 -16.484375l1.4375 0zm7.229065 16.765625q-1.125 0 -2.046875 -0.4375q-0.921875 -0.4375 -1.46875 -1.265625q-0.546875 -0.84375 -0.546875 -2.03125q0 -0.921875 0.34375 -1.546875q0.34375 -0.625 0.984375 -1.015625q0.640625 -0.40625 1.5 -0.640625q0.875 -0.234375 1.921875 -0.375q1.03125 -0.125 1.75 -0.21875q0.71875 -0.09375 1.09375 -0.296875q0.390625 -0.21875 0.390625 -0.6875l0 -0.28125q0 -1.265625 -0.765625 -1.984375q-0.75 -0.734375 -2.15625 -0.734375q-1.328125 0 -2.171875 0.59375q-0.84375 0.578125 -1.171875 1.375l-1.359375 -0.5q0.40625 -1.0 1.140625 -1.609375q0.75 -0.609375 1.65625 -0.875q0.921875 -0.28125 1.875 -0.28125q0.703125 0 1.46875 0.1875q0.765625 0.1875 1.421875 0.640625q0.671875 0.453125 1.078125 1.265625q0.40625 0.8125 0.40625 2.046875l0 8.390625l-1.421875 0l0 -1.953125l-0.09375 0q-0.25 0.546875 -0.765625 1.0625q-0.5 0.515625 -1.265625 0.84375q-0.765625 0.328125 -1.796875 0.328125zm0.1875 -1.3125q1.140625 0 1.96875 -0.5q0.84375 -0.515625 1.296875 -1.34375q0.46875 -0.84375 0.46875 -1.859375l0 -1.796875q-0.171875 0.15625 -0.546875 0.28125q-0.375 0.125 -0.859375 0.21875q-0.484375 0.078125 -0.96875 0.15625q-0.484375 0.0625 -0.859375 0.109375q-1.046875 0.125 -1.796875 0.40625q-0.734375 0.265625 -1.125 0.75q-0.390625 0.46875 -0.390625 1.21875q0 1.125 0.796875 1.75q0.8125 0.609375 2.015625 0.609375zm10.404053 -6.6875l0 7.71875l-1.4375 0l0 -12.359375l1.390625 0l0 1.9375l0.125 0q0.4375 -0.953125 1.359375 -1.515625q0.921875 -0.578125 2.28125 -0.578125q1.25 0 2.1875 0.515625q0.953125 0.515625 1.46875 1.53125q0.53125 1.0 0.53125 2.46875l0 8.0l-1.421875 0l0 -7.921875q0 -1.515625 -0.859375 -2.390625q-0.84375 -0.890625 -2.265625 -0.890625q-0.96875 0 -1.734375 0.421875q-0.75 0.40625 -1.1875 1.203125q-0.4375 0.78125 -0.4375 1.859375zm16.520752 7.96875q-1.65625 0 -2.890625 -0.828125q-1.21875 -0.828125 -1.90625 -2.265625q-0.671875 -1.4375 -0.671875 -3.28125q0 -1.859375 0.6875 -3.296875q0.6875 -1.453125 1.90625 -2.28125q1.234375 -0.828125 2.84375 -0.828125q1.25 0 2.25 0.484375q1.0 0.484375 1.65625 1.34375q0.65625 0.859375 0.828125 2.015625l-1.453125 0q-0.21875 -1.046875 -1.078125 -1.78125q-0.859375 -0.75 -2.171875 -0.75q-1.1875 0 -2.09375 0.640625q-0.90625 0.640625 -1.421875 1.78125q-0.515625 1.125 -0.515625 2.625q0 1.5 0.5 2.65625q0.5 1.15625 1.40625 1.8125q0.90625 0.65625 2.125 0.65625q0.8125 0 1.484375 -0.3125q0.6875 -0.3125 1.15625 -0.875q0.46875 -0.578125 0.625 -1.375l1.453125 0q-0.171875 1.125 -0.796875 2.0q-0.625 0.875 -1.640625 1.375q-1.0 0.484375 -2.28125 0.484375zm12.779114 0q-1.734375 0 -3.0 -0.796875q-1.265625 -0.8125 -1.953125 -2.25q-0.6875 -1.4375 -0.6875 -3.3125q0 -1.859375 0.6875 -3.3125q0.6875 -1.453125 1.90625 -2.28125q1.21875 -0.828125 2.828125 -0.828125q1.0 0 1.9375 0.375q0.9375 0.359375 1.671875 1.109375q0.75 0.75 1.1875 1.890625q0.4375 1.140625 0.4375 2.703125l0 0.703125l-9.65625 0l0 -1.265625l8.1875 0q0 -1.1875 -0.484375 -2.140625q-0.46875 -0.953125 -1.328125 -1.5q-0.84375 -0.5625 -1.953125 -0.5625q-1.171875 0 -2.078125 0.625q-0.890625 0.625 -1.390625 1.65625q-0.5 1.03125 -0.515625 2.25l0 0.765625q0 1.46875 0.515625 2.5625q0.515625 1.09375 1.453125 1.703125q0.9375 0.609375 2.234375 0.609375q0.875 0 1.53125 -0.265625q0.671875 -0.28125 1.125 -0.75q0.453125 -0.46875 0.6875 -1.015625l1.359375 0.4375q-0.28125 0.78125 -0.921875 1.453125q-0.640625 0.65625 -1.59375 1.046875q-0.953125 0.390625 -2.1875 0.390625zm8.154236 -0.25l0 -12.359375l1.390625 0l0 1.90625l0.109375 0q0.359375 -0.9375 1.28125 -1.515625q0.921875 -0.578125 2.09375 -0.578125q0.171875 0 0.390625 0.015625q0.21875 0 0.359375 0.015625l0 1.453125q-0.09375 -0.015625 -0.34375 -0.046875q-0.234375 -0.03125 -0.515625 -0.03125q-0.953125 0 -1.71875 0.40625q-0.75 0.40625 -1.1875 1.125q-0.421875 0.71875 -0.421875 1.625l0 7.984375l-1.4375 0z" fill-rule="nonzero"/><path fill="#000000" fill-opacity="0.0" d="m887.23126 454.6198c0 36.126007 -25.881897 54.188995 -51.763794 72.25195c-25.881897 18.06305 -51.763794 36.126038 -51.763794 72.252014" fill-rule="evenodd"/><path stroke="#7183d9" stroke-width="2.0" stroke-linejoin="round" stroke-linecap="butt" d="m887.2312 454.61984c0 36.125977 -25.881897 54.188965 -51.763794 72.25198c-12.940918 9.031494 -25.881836 18.062988 -35.587585 29.352356c-4.852844 5.6446533 -8.896912 11.853821 -11.727783 18.909668c-1.4153442 3.527954 -2.5274658 7.267578 -3.2857056 11.254089c-0.047424316 0.24914551 -0.093444824 0.49926758 -0.13800049 0.7503662l-0.005004883 0.028869629" fill-rule="evenodd"/><path fill="#7183d9" stroke="#7183d9" stroke-width="2.0" stroke-linecap="butt" d="m781.4318 586.8865l2.5202637 9.324036l4.062805 -8.762634z" fill-rule="evenodd"/><path fill="#000000" fill-opacity="0.0" d="m887.23126 454.6198c0 36.126007 25.881897 54.188995 51.763733 72.25195c25.881897 18.06305 51.763794 36.126038 51.763794 72.252014" fill-rule="evenodd"/><path stroke="#7183d9" stroke-width="2.0" stroke-linejoin="round" stroke-linecap="butt" stroke-dasharray="2.0,6.0" d="m887.2312 454.61984c0 36.125977 25.881897 54.188965 51.763794 72.25198c12.940918 9.031494 25.881897 18.062988 35.587585 29.352356c4.852844 5.6446533 8.896912 11.853821 11.727783 18.909668c1.4153442 3.527954 2.5274658 7.267578 3.2857666 11.254089c0.047424316 0.24914551 0.093444824 0.49926758 0.13793945 0.7503662l0.005004883 0.028869629" fill-rule="evenodd"/><path fill="#7183d9" stroke="#7183d9" stroke-width="2.0" stroke-linecap="butt" d="m986.4476 587.4479l4.062744 8.762634l2.5202637 -9.324036z" fill-rule="evenodd"/><path fill="#000000" fill-opacity="0.0" d="m261.54288 267.34122l262.4252 0l0 78.20471l-262.4252 0z" fill-rule="evenodd"/><path fill="#111c4e" d="m316.30978 298.1012l-3.734375 0l5.703125 -16.484375l4.484375 0l5.671875 16.484375l-3.734375 0l-4.125 -12.71875l-0.125 0l-4.140625 12.71875zm-0.234375 -6.484375l8.828125 0l0 2.734375l-8.828125 0l0 -2.734375zm19.28601 6.71875q-1.90625 0 -3.265625 -0.796875q-1.359375 -0.8125 -2.09375 -2.25q-0.71875 -1.4375 -0.71875 -3.3125q0 -1.90625 0.734375 -3.34375q0.734375 -1.4375 2.09375 -2.234375q1.359375 -0.8125 3.234375 -0.8125q1.609375 0 2.828125 0.59375q1.21875 0.578125 1.921875 1.640625q0.703125 1.0625 0.78125 2.5l-3.234375 0q-0.140625 -0.9375 -0.71875 -1.5q-0.578125 -0.5625 -1.53125 -0.5625q-0.796875 0 -1.390625 0.4375q-0.578125 0.421875 -0.90625 1.25q-0.328125 0.8125 -0.328125 1.984375q0 1.171875 0.3125 2.0q0.328125 0.828125 0.921875 1.265625q0.59375 0.4375 1.390625 0.4375q0.59375 0 1.0625 -0.234375q0.46875 -0.25 0.78125 -0.703125q0.3125 -0.46875 0.40625 -1.125l3.234375 0q-0.078125 1.421875 -0.765625 2.5q-0.6875 1.0625 -1.90625 1.671875q-1.203125 0.59375 -2.84375 0.59375zm14.291534 -12.59375l0 2.578125l-7.4375 0l0 -2.578125l7.4375 0zm-5.75 -2.953125l3.421875 0l0 11.515625q0 0.46875 0.140625 0.734375q0.15625 0.265625 0.40625 0.375q0.265625 0.09375 0.625 0.09375q0.234375 0 0.46875 -0.03125q0.25 -0.046875 0.375 -0.078125l0.546875 2.546875q-0.265625 0.078125 -0.734375 0.1875q-0.46875 0.109375 -1.125 0.140625q-1.25 0.046875 -2.1875 -0.328125q-0.921875 -0.375 -1.4375 -1.171875q-0.5 -0.796875 -0.5 -2.015625l0 -11.96875zm7.989197 15.3125l0 -12.359375l3.421875 0l0 12.359375l-3.421875 0zm1.71875 -13.953125q-0.765625 0 -1.3125 -0.5q-0.546875 -0.515625 -0.546875 -1.234375q0 -0.703125 0.546875 -1.21875q0.546875 -0.515625 1.3125 -0.515625q0.765625 0 1.296875 0.515625q0.546875 0.515625 0.546875 1.21875q0 0.71875 -0.546875 1.234375q-0.53125 0.5 -1.296875 0.5zm15.959686 1.59375l-4.328125 12.359375l-3.859375 0l-4.3125 -12.359375l3.609375 0l2.578125 8.84375l0.125 0l2.5625 -8.84375l3.625 0zm6.973816 12.59375q-1.90625 0 -3.28125 -0.765625q-1.375 -0.78125 -2.109375 -2.203125q-0.734375 -1.4375 -0.734375 -3.390625q0 -1.90625 0.734375 -3.34375q0.734375 -1.4375 2.078125 -2.234375q1.359375 -0.8125 3.171875 -0.8125q1.21875 0 2.28125 0.390625q1.0625 0.390625 1.84375 1.171875q0.796875 0.78125 1.234375 1.96875q0.453125 1.171875 0.453125 2.734375l0 0.953125l-10.4375 0l0 -2.125l7.21875 0q0 -0.75 -0.328125 -1.3125q-0.328125 -0.578125 -0.890625 -0.890625q-0.5625 -0.328125 -1.3125 -0.328125q-0.78125 0 -1.390625 0.359375q-0.59375 0.34375 -0.9375 0.953125q-0.328125 0.59375 -0.34375 1.328125l0 2.015625q0 0.921875 0.34375 1.59375q0.34375 0.65625 0.96875 1.03125q0.625 0.359375 1.5 0.359375q0.5625 0 1.03125 -0.15625q0.484375 -0.171875 0.8125 -0.484375q0.34375 -0.328125 0.515625 -0.796875l3.171875 0.203125q-0.234375 1.15625 -0.984375 2.0q-0.734375 0.84375 -1.90625 1.3125q-1.171875 0.46875 -2.703125 0.46875zm20.341003 -17.484375l-5.3125 19.734375l-2.953125 0l5.3125 -19.734375l2.953125 0zm9.806305 17.25l-3.734375 0l5.703125 -16.484375l4.484375 0l5.671875 16.484375l-3.734375 0l-4.125 -12.71875l-0.125 0l-4.140625 12.71875zm-0.234375 -6.484375l8.828125 0l0 2.734375l-8.828125 0l0 -2.734375zm19.28601 6.71875q-1.90625 0 -3.265625 -0.796875q-1.359375 -0.8125 -2.09375 -2.25q-0.71875 -1.4375 -0.71875 -3.3125q0 -1.90625 0.734375 -3.34375q0.734375 -1.4375 2.09375 -2.234375q1.359375 -0.8125 3.234375 -0.8125q1.609375 0 2.828125 0.59375q1.21875 0.578125 1.921875 1.640625q0.703125 1.0625 0.78125 2.5l-3.234375 0q-0.140625 -0.9375 -0.71875 -1.5q-0.578125 -0.5625 -1.53125 -0.5625q-0.796875 0 -1.390625 0.4375q-0.578125 0.421875 -0.90625 1.25q-0.328125 0.8125 -0.328125 1.984375q0 1.171875 0.3125 2.0q0.328125 0.828125 0.921875 1.265625q0.59375 0.4375 1.390625 0.4375q0.59375 0 1.0625 -0.234375q0.46875 -0.25 0.78125 -0.703125q0.3125 -0.46875 0.40625 -1.125l3.234375 0q-0.078125 1.421875 -0.765625 2.5q-0.6875 1.0625 -1.90625 1.671875q-1.203125 0.59375 -2.84375 0.59375zm14.291534 -12.59375l0 2.578125l-7.4375 0l0 -2.578125l7.4375 0zm-5.75 -2.953125l3.421875 0l0 11.515625q0 0.46875 0.140625 0.734375q0.15625 0.265625 0.40625 0.375q0.265625 0.09375 0.625 0.09375q0.234375 0 0.46875 -0.03125q0.25 -0.046875 0.375 -0.078125l0.546875 2.546875q-0.265625 0.078125 -0.734375 0.1875q-0.46875 0.109375 -1.125 0.140625q-1.25 0.046875 -2.1875 -0.328125q-0.921875 -0.375 -1.4375 -1.171875q-0.5 -0.796875 -0.5 -2.015625l0 -11.96875zm7.989197 15.3125l0 -12.359375l3.421875 0l0 12.359375l-3.421875 0zm1.71875 -13.953125q-0.765625 0 -1.3125 -0.5q-0.546875 -0.515625 -0.546875 -1.234375q0 -0.703125 0.546875 -1.21875q0.546875 -0.515625 1.3125 -0.515625q0.765625 0 1.296875 0.515625q0.546875 0.515625 0.546875 1.21875q0 0.71875 -0.546875 1.234375q-0.53125 0.5 -1.296875 0.5zm15.959686 1.59375l-4.328125 12.359375l-3.859375 0l-4.3125 -12.359375l3.609375 0l2.578125 8.84375l0.125 0l2.5625 -8.84375l3.625 0zm6.973816 12.59375q-1.90625 0 -3.28125 -0.765625q-1.375 -0.78125 -2.109375 -2.203125q-0.734375 -1.4375 -0.734375 -3.390625q0 -1.90625 0.734375 -3.34375q0.734375 -1.4375 2.078125 -2.234375q1.359375 -0.8125 3.171875 -0.8125q1.21875 0 2.28125 0.390625q1.0625 0.390625 1.84375 1.171875q0.796875 0.78125 1.234375 1.96875q0.453125 1.171875 0.453125 2.734375l0 0.953125l-10.4375 0l0 -2.125l7.21875 0q0 -0.75 -0.328125 -1.3125q-0.328125 -0.578125 -0.890625 -0.890625q-0.5625 -0.328125 -1.3125 -0.328125q-0.78125 0 -1.390625 0.359375q-0.59375 0.34375 -0.9375 0.953125q-0.328125 0.59375 -0.34375 1.328125l0 2.015625q0 0.921875 0.34375 1.59375q0.34375 0.65625 0.96875 1.03125q0.625 0.359375 1.5 0.359375q0.5625 0 1.03125 -0.15625q0.484375 -0.171875 0.8125 -0.484375q0.34375 -0.328125 0.515625 -0.796875l3.171875 0.203125q-0.234375 1.15625 -0.984375 2.0q-0.734375 0.84375 -1.90625 1.3125q-1.171875 0.46875 -2.703125 0.46875z" fill-rule="nonzero"/><path fill="#111c4e" d="m311.53323 321.6956q0 -2.71875 0.6875 -5.140625q0.6875 -2.4375 1.96875 -4.546875l1.234375 0q-0.546875 0.890625 -1.015625 2.015625q-0.453125 1.125 -0.796875 2.40625q-0.328125 1.28125 -0.515625 2.625q-0.171875 1.328125 -0.171875 2.640625q0 1.75 0.3125 3.53125q0.328125 1.78125 0.890625 3.390625q0.5625 1.59375 1.296875 2.78125l-1.234375 0q-1.28125 -2.140625 -1.96875 -4.5625q-0.6875 -2.421875 -0.6875 -5.140625zm7.1108093 7.765625l0 -15.515625l1.40625 0l0 14.25l7.40625 0l0 1.265625l-8.8125 0zm16.231354 0.25q-1.5 0 -2.65625 -0.765625q-1.15625 -0.765625 -1.8125 -2.109375q-0.640625 -1.359375 -0.640625 -3.140625q0 -1.78125 0.640625 -3.140625q0.65625 -1.359375 1.8125 -2.125q1.15625 -0.765625 2.65625 -0.765625q1.515625 0 2.65625 0.765625q1.15625 0.765625 1.8125 2.125q0.65625 1.359375 0.65625 3.140625q0 1.78125 -0.65625 3.140625q-0.640625 1.34375 -1.796875 2.109375q-1.15625 0.765625 -2.671875 0.765625zm0 -1.234375q1.21875 0 2.046875 -0.65625q0.84375 -0.65625 1.28125 -1.734375q0.4375 -1.09375 0.4375 -2.390625q0 -1.296875 -0.4375 -2.390625q-0.4375 -1.09375 -1.28125 -1.75q-0.828125 -0.65625 -2.046875 -0.65625q-1.203125 0 -2.046875 0.65625q-0.84375 0.65625 -1.28125 1.75q-0.4375 1.09375 -0.4375 2.390625q0 1.296875 0.4375 2.390625q0.4375 1.078125 1.28125 1.734375q0.84375 0.65625 2.046875 0.65625zm11.33725 1.25q-1.0625 0 -1.9375 -0.40625q-0.859375 -0.421875 -1.375 -1.203125q-0.515625 -0.78125 -0.515625 -1.90625q0 -0.859375 0.328125 -1.453125q0.328125 -0.59375 0.921875 -0.96875q0.59375 -0.375 1.40625 -0.59375q0.828125 -0.21875 1.8125 -0.34375q0.984375 -0.125 1.65625 -0.21875q0.671875 -0.09375 1.03125 -0.28125q0.359375 -0.203125 0.359375 -0.640625l0 -0.265625q0 -1.1875 -0.71875 -1.875q-0.703125 -0.6875 -2.03125 -0.6875q-1.25 0 -2.046875 0.5625q-0.78125 0.546875 -1.109375 1.296875l-1.28125 -0.46875q0.40625 -0.953125 1.09375 -1.515625q0.703125 -0.578125 1.5625 -0.828125q0.859375 -0.265625 1.75 -0.265625q0.671875 0 1.390625 0.1875q0.71875 0.171875 1.34375 0.59375q0.625 0.421875 1.0 1.1875q0.390625 0.765625 0.390625 1.921875l0 7.90625l-1.34375 0l0 -1.84375l-0.078125 0q-0.25 0.515625 -0.734375 1.0q-0.46875 0.484375 -1.1875 0.796875q-0.71875 0.3125 -1.6875 0.3125zm0.171875 -1.234375q1.078125 0 1.859375 -0.46875q0.796875 -0.484375 1.21875 -1.265625q0.4375 -0.796875 0.4375 -1.765625l0 -1.671875q-0.15625 0.140625 -0.515625 0.265625q-0.34375 0.109375 -0.8125 0.203125q-0.453125 0.078125 -0.90625 0.140625q-0.453125 0.0625 -0.8125 0.09375q-0.984375 0.125 -1.6875 0.390625q-0.6875 0.25 -1.0625 0.703125q-0.375 0.453125 -0.375 1.15625q0 1.0625 0.75 1.640625q0.765625 0.578125 1.90625 0.578125zm12.63382 1.21875q-1.4375 0 -2.515625 -0.75q-1.0625 -0.765625 -1.671875 -2.125q-0.59375 -1.359375 -0.59375 -3.15625q0 -1.796875 0.59375 -3.140625q0.609375 -1.359375 1.6875 -2.109375q1.078125 -0.765625 2.515625 -0.765625q1.0625 0 1.765625 0.375q0.703125 0.375 1.125 0.9375q0.4375 0.546875 0.671875 1.0625l0.125 0l0 -6.09375l1.34375 0l0 15.515625l-1.3125 0l0 -2.15625l-0.15625 0q-0.234375 0.53125 -0.671875 1.09375q-0.4375 0.546875 -1.140625 0.9375q-0.703125 0.375 -1.765625 0.375zm0.15625 -1.234375q1.125 0 1.921875 -0.625q0.796875 -0.625 1.21875 -1.703125q0.421875 -1.09375 0.421875 -2.5q0 -1.390625 -0.421875 -2.453125q-0.40625 -1.078125 -1.203125 -1.6875q-0.796875 -0.609375 -1.9375 -0.609375q-1.171875 0 -1.96875 0.640625q-0.796875 0.625 -1.21875 1.703125q-0.40625 1.0625 -0.40625 2.40625q0 1.359375 0.421875 2.453125q0.421875 1.09375 1.21875 1.734375q0.796875 0.640625 1.953125 0.640625zm15.016022 0.984375l0 -15.515625l5.234375 0q1.515625 0 2.515625 0.53125q1.015625 0.53125 1.515625 1.453125q0.515625 0.90625 0.515625 2.078125q0 0.96875 -0.328125 1.65625q-0.328125 0.6875 -0.890625 1.125q-0.546875 0.421875 -1.234375 0.609375l0 0.125q0.75 0.046875 1.453125 0.53125q0.703125 0.46875 1.15625 1.3125q0.453125 0.84375 0.453125 2.03125q0 1.171875 -0.53125 2.09375q-0.515625 0.921875 -1.59375 1.453125q-1.078125 0.515625 -2.75 0.515625l-5.515625 0zm1.40625 -1.265625l4.109375 0q1.796875 0 2.65625 -0.796875q0.859375 -0.796875 0.859375 -2.0q0 -0.890625 -0.4375 -1.609375q-0.421875 -0.734375 -1.203125 -1.15625q-0.765625 -0.421875 -1.8125 -0.421875l-4.171875 0l0 5.984375zm0 -7.234375l3.953125 0q0.921875 0 1.609375 -0.375q0.6875 -0.390625 1.0625 -1.046875q0.390625 -0.671875 0.390625 -1.53125q0 -1.234375 -0.796875 -2.0q-0.796875 -0.78125 -2.390625 -0.78125l-3.828125 0l0 5.734375zm15.369629 8.765625q-1.0625 0 -1.9375 -0.40625q-0.859375 -0.421875 -1.375 -1.203125q-0.515625 -0.78125 -0.515625 -1.90625q0 -0.859375 0.328125 -1.453125q0.328125 -0.59375 0.921875 -0.96875q0.59375 -0.375 1.40625 -0.59375q0.828125 -0.21875 1.8125 -0.34375q0.984375 -0.125 1.65625 -0.21875q0.671875 -0.09375 1.03125 -0.28125q0.359375 -0.203125 0.359375 -0.640625l0 -0.265625q0 -1.1875 -0.71875 -1.875q-0.703125 -0.6875 -2.03125 -0.6875q-1.25 0 -2.046875 0.5625q-0.78125 0.546875 -1.109375 1.296875l-1.28125 -0.46875q0.40625 -0.953125 1.09375 -1.515625q0.703125 -0.578125 1.5625 -0.828125q0.859375 -0.265625 1.75 -0.265625q0.671875 0 1.390625 0.1875q0.71875 0.171875 1.34375 0.59375q0.625 0.421875 1.0 1.1875q0.390625 0.765625 0.390625 1.921875l0 7.90625l-1.34375 0l0 -1.84375l-0.078125 0q-0.25 0.515625 -0.734375 1.0q-0.46875 0.484375 -1.1875 0.796875q-0.71875 0.3125 -1.6875 0.3125zm0.171875 -1.234375q1.078125 0 1.859375 -0.46875q0.796875 -0.484375 1.21875 -1.265625q0.4375 -0.796875 0.4375 -1.765625l0 -1.671875q-0.15625 0.140625 -0.515625 0.265625q-0.34375 0.109375 -0.8125 0.203125q-0.453125 0.078125 -0.90625 0.140625q-0.453125 0.0625 -0.8125 0.09375q-0.984375 0.125 -1.6875 0.390625q-0.6875 0.25 -1.0625 0.703125q-0.375 0.453125 -0.375 1.15625q0 1.0625 0.75 1.640625q0.765625 0.578125 1.90625 0.578125zm9.79007 -14.546875l0 15.515625l-1.34375 0l0 -15.515625l1.34375 0zm6.8141174 15.78125q-1.0625 0 -1.9375 -0.40625q-0.859375 -0.421875 -1.375 -1.203125q-0.515625 -0.78125 -0.515625 -1.90625q0 -0.859375 0.328125 -1.453125q0.328125 -0.59375 0.921875 -0.96875q0.59375 -0.375 1.40625 -0.59375q0.828125 -0.21875 1.8125 -0.34375q0.984375 -0.125 1.65625 -0.21875q0.671875 -0.09375 1.03125 -0.28125q0.359375 -0.203125 0.359375 -0.640625l0 -0.265625q0 -1.1875 -0.71875 -1.875q-0.703125 -0.6875 -2.03125 -0.6875q-1.25 0 -2.046875 0.5625q-0.78125 0.546875 -1.109375 1.296875l-1.28125 -0.46875q0.40625 -0.953125 1.09375 -1.515625q0.703125 -0.578125 1.5625 -0.828125q0.859375 -0.265625 1.75 -0.265625q0.671875 0 1.390625 0.1875q0.71875 0.171875 1.34375 0.59375q0.625 0.421875 1.0 1.1875q0.390625 0.765625 0.390625 1.921875l0 7.90625l-1.34375 0l0 -1.84375l-0.078125 0q-0.25 0.515625 -0.734375 1.0q-0.46875 0.484375 -1.1875 0.796875q-0.71875 0.3125 -1.6875 0.3125zm0.171875 -1.234375q1.078125 0 1.859375 -0.46875q0.796875 -0.484375 1.21875 -1.265625q0.4375 -0.796875 0.4375 -1.765625l0 -1.671875q-0.15625 0.140625 -0.515625 0.265625q-0.34375 0.109375 -0.8125 0.203125q-0.453125 0.078125 -0.90625 0.140625q-0.453125 0.0625 -0.8125 0.09375q-0.984375 0.125 -1.6875 0.390625q-0.6875 0.25 -1.0625 0.703125q-0.375 0.453125 -0.375 1.15625q0 1.0625 0.75 1.640625q0.765625 0.578125 1.90625 0.578125zm9.79007 -6.296875l0 7.265625l-1.34375 0l0 -11.640625l1.3125 0l0 1.828125l0.125 0q0.40625 -0.890625 1.265625 -1.421875q0.875 -0.546875 2.15625 -0.546875q1.171875 0 2.0625 0.484375q0.890625 0.484375 1.375 1.4375q0.5 0.9375 0.5 2.328125l0 7.53125l-1.34375 0l0 -7.453125q0 -1.4375 -0.796875 -2.265625q-0.796875 -0.828125 -2.140625 -0.828125q-0.921875 0 -1.640625 0.390625q-0.703125 0.390625 -1.125 1.140625q-0.40625 0.734375 -0.40625 1.75zm15.56366 7.515625q-1.5625 0 -2.71875 -0.78125q-1.15625 -0.78125 -1.796875 -2.140625q-0.625 -1.359375 -0.625 -3.09375q0 -1.75 0.640625 -3.109375q0.65625 -1.359375 1.796875 -2.140625q1.15625 -0.78125 2.671875 -0.78125q1.171875 0 2.109375 0.453125q0.953125 0.453125 1.5625 1.265625q0.625 0.8125 0.78125 1.890625l-1.359375 0q-0.21875 -0.984375 -1.03125 -1.671875q-0.796875 -0.703125 -2.03125 -0.703125q-1.125 0 -1.984375 0.609375q-0.84375 0.59375 -1.328125 1.671875q-0.484375 1.0625 -0.484375 2.46875q0 1.421875 0.46875 2.515625q0.46875 1.078125 1.328125 1.703125q0.859375 0.609375 2.0 0.609375q0.765625 0 1.40625 -0.296875q0.640625 -0.296875 1.078125 -0.828125q0.4375 -0.546875 0.59375 -1.28125l1.359375 0q-0.15625 1.046875 -0.75 1.875q-0.59375 0.8125 -1.546875 1.296875q-0.9375 0.46875 -2.140625 0.46875zm7.3369446 -0.25l0 -11.640625l1.359375 0l0 11.640625l-1.359375 0zm0.6875 -13.640625q-0.421875 0 -0.71875 -0.28125q-0.28125 -0.28125 -0.28125 -0.6875q0 -0.390625 0.28125 -0.671875q0.296875 -0.296875 0.71875 -0.296875q0.421875 0 0.703125 0.296875q0.296875 0.28125 0.296875 0.671875q0 0.40625 -0.296875 0.6875q-0.28125 0.28125 -0.703125 0.28125zm5.5863647 6.375l0 7.265625l-1.34375 0l0 -11.640625l1.3125 0l0 1.828125l0.125 0q0.40625 -0.890625 1.265625 -1.421875q0.875 -0.546875 2.15625 -0.546875q1.171875 0 2.0625 0.484375q0.890625 0.484375 1.375 1.4375q0.5 0.9375 0.5 2.328125l0 7.53125l-1.34375 0l0 -7.453125q0 -1.4375 -0.796875 -2.265625q-0.796875 -0.828125 -2.140625 -0.828125q-0.921875 0 -1.640625 0.390625q-0.703125 0.390625 -1.125 1.140625q-0.40625 0.734375 -0.40625 1.75zm15.454254 11.875q-1.1875 0 -2.09375 -0.3125q-0.890625 -0.3125 -1.5 -0.84375q-0.609375 -0.515625 -0.953125 -1.1875l1.109375 -0.71875q0.25 0.4375 0.671875 0.859375q0.421875 0.421875 1.09375 0.703125q0.671875 0.28125 1.671875 0.28125q1.546875 0 2.5 -0.78125q0.953125 -0.765625 0.953125 -2.390625l0 -2.625l-0.125 0q-0.234375 0.53125 -0.6875 1.0625q-0.4375 0.53125 -1.140625 0.875q-0.703125 0.34375 -1.75 0.34375q-1.390625 0 -2.46875 -0.6875q-1.078125 -0.6875 -1.703125 -1.96875q-0.609375 -1.28125 -0.609375 -3.0625q0 -1.765625 0.59375 -3.109375q0.609375 -1.34375 1.6875 -2.09375q1.078125 -0.75 2.515625 -0.75q1.078125 0 1.78125 0.375q0.703125 0.375 1.125 0.9375q0.4375 0.546875 0.671875 1.0625l0.140625 0l0 -2.21875l1.3125 0l0 11.9375q0 1.484375 -0.625 2.4375q-0.625 0.953125 -1.71875 1.40625q-1.078125 0.46875 -2.453125 0.46875zm-0.09375 -5.96875q1.125 0 1.921875 -0.53125q0.796875 -0.546875 1.21875 -1.5625q0.421875 -1.015625 0.421875 -2.421875q0 -1.359375 -0.421875 -2.40625q-0.40625 -1.0625 -1.203125 -1.671875q-0.796875 -0.609375 -1.9375 -0.609375q-1.171875 0 -1.96875 0.625q-0.796875 0.625 -1.21875 1.6875q-0.40625 1.0625 -0.40625 2.375q0 1.34375 0.421875 2.359375q0.421875 1.015625 1.21875 1.59375q0.796875 0.5625 1.953125 0.5625zm11.736816 -5.1875q0 2.734375 -0.6875 5.15625q-0.6875 2.421875 -1.96875 4.546875l-1.234375 0q0.5625 -0.90625 1.015625 -2.03125q0.453125 -1.125 0.78125 -2.40625q0.34375 -1.28125 0.515625 -2.609375q0.1875 -1.34375 0.1875 -2.65625q0 -1.75 -0.328125 -3.53125q-0.3125 -1.78125 -0.875 -3.375q-0.5625 -1.59375 -1.296875 -2.78125l1.234375 0q1.28125 2.125 1.96875 4.546875q0.6875 2.421875 0.6875 5.140625z" fill-rule="nonzero"/><path fill="#000000" fill-opacity="0.0" d="m756.00586 267.34122l262.42517 0l0 78.20471l-262.42517 0z" fill-rule="evenodd"/><path fill="#111c4e" d="m803.5358 298.1012l-3.734375 0l5.703125 -16.484375l4.484375 0l5.671875 16.484375l-3.734375 0l-4.125 -12.71875l-0.125 0l-4.140625 12.71875zm-0.234375 -6.484375l8.828125 0l0 2.734375l-8.828125 0l0 -2.734375zm19.28601 6.71875q-1.90625 0 -3.265625 -0.796875q-1.359375 -0.8125 -2.09375 -2.25q-0.71875 -1.4375 -0.71875 -3.3125q0 -1.90625 0.734375 -3.34375q0.734375 -1.4375 2.09375 -2.234375q1.359375 -0.8125 3.234375 -0.8125q1.609375 0 2.828125 0.59375q1.21875 0.578125 1.921875 1.640625q0.703125 1.0625 0.78125 2.5l-3.234375 0q-0.140625 -0.9375 -0.71875 -1.5q-0.578125 -0.5625 -1.53125 -0.5625q-0.796875 0 -1.390625 0.4375q-0.578125 0.421875 -0.90625 1.25q-0.328125 0.8125 -0.328125 1.984375q0 1.171875 0.3125 2.0q0.328125 0.828125 0.921875 1.265625q0.59375 0.4375 1.390625 0.4375q0.59375 0 1.0625 -0.234375q0.46875 -0.25 0.78125 -0.703125q0.3125 -0.46875 0.40625 -1.125l3.234375 0q-0.078125 1.421875 -0.765625 2.5q-0.6875 1.0625 -1.90625 1.671875q-1.203125 0.59375 -2.84375 0.59375zm14.291504 -12.59375l0 2.578125l-7.4375 0l0 -2.578125l7.4375 0zm-5.75 -2.953125l3.421875 0l0 11.515625q0 0.46875 0.140625 0.734375q0.15625 0.265625 0.40625 0.375q0.265625 0.09375 0.625 0.09375q0.234375 0 0.46875 -0.03125q0.25 -0.046875 0.375 -0.078125l0.546875 2.546875q-0.265625 0.078125 -0.734375 0.1875q-0.46875 0.109375 -1.125 0.140625q-1.25 0.046875 -2.1875 -0.328125q-0.921875 -0.375 -1.4375 -1.171875q-0.5 -0.796875 -0.5 -2.015625l0 -11.96875zm7.989197 15.3125l0 -12.359375l3.421875 0l0 12.359375l-3.421875 0zm1.71875 -13.953125q-0.765625 0 -1.3125 -0.5q-0.546875 -0.515625 -0.546875 -1.234375q0 -0.703125 0.546875 -1.21875q0.546875 -0.515625 1.3125 -0.515625q0.765625 0 1.296875 0.515625q0.546875 0.515625 0.546875 1.21875q0 0.71875 -0.546875 1.234375q-0.53125 0.5 -1.296875 0.5zm15.959717 1.59375l-4.328125 12.359375l-3.859375 0l-4.3125 -12.359375l3.609375 0l2.578125 8.84375l0.125 0l2.5625 -8.84375l3.625 0zm6.973816 12.59375q-1.90625 0 -3.28125 -0.765625q-1.375 -0.78125 -2.109375 -2.203125q-0.734375 -1.4375 -0.734375 -3.390625q0 -1.90625 0.734375 -3.34375q0.734375 -1.4375 2.078125 -2.234375q1.359375 -0.8125 3.171875 -0.8125q1.21875 0 2.28125 0.390625q1.0625 0.390625 1.84375 1.171875q0.796875 0.78125 1.234375 1.96875q0.453125 1.171875 0.453125 2.734375l0 0.953125l-10.4375 0l0 -2.125l7.21875 0q0 -0.75 -0.328125 -1.3125q-0.328125 -0.578125 -0.890625 -0.890625q-0.5625 -0.328125 -1.3125 -0.328125q-0.78125 0 -1.390625 0.359375q-0.59375 0.34375 -0.9375 0.953125q-0.328125 0.59375 -0.34375 1.328125l0 2.015625q0 0.921875 0.34375 1.59375q0.34375 0.65625 0.96875 1.03125q0.625 0.359375 1.5 0.359375q0.5625 0 1.03125 -0.15625q0.484375 -0.171875 0.8125 -0.484375q0.34375 -0.328125 0.515625 -0.796875l3.171875 0.203125q-0.234375 1.15625 -0.984375 2.0q-0.734375 0.84375 -1.90625 1.3125q-1.171875 0.46875 -2.703125 0.46875zm20.341003 -17.484375l-5.3125 19.734375l-2.953125 0l5.3125 -19.734375l2.953125 0zm6.9781494 17.25l0 -16.484375l6.5 0q1.875 0 3.1875 0.71875q1.328125 0.71875 2.015625 1.984375q0.703125 1.25 0.703125 2.890625q0 1.640625 -0.71875 2.90625q-0.703125 1.25 -2.046875 1.953125q-1.328125 0.6875 -3.234375 0.6875l-4.140625 0l0 -2.796875l3.578125 0q1.0 0 1.65625 -0.34375q0.65625 -0.34375 0.984375 -0.96875q0.328125 -0.625 0.328125 -1.4375q0 -0.828125 -0.328125 -1.4375q-0.328125 -0.609375 -0.984375 -0.953125q-0.65625 -0.34375 -1.671875 -0.34375l-2.34375 0l0 13.625l-3.484375 0zm17.798035 0.234375q-1.1875 0 -2.109375 -0.40625q-0.921875 -0.421875 -1.46875 -1.234375q-0.53125 -0.828125 -0.53125 -2.046875q0 -1.03125 0.375 -1.71875q0.390625 -0.703125 1.03125 -1.125q0.65625 -0.4375 1.484375 -0.65625q0.84375 -0.21875 1.765625 -0.296875q1.078125 -0.125 1.734375 -0.21875q0.65625 -0.109375 0.953125 -0.296875q0.296875 -0.203125 0.296875 -0.609375l0 -0.046875q0 -0.765625 -0.484375 -1.171875q-0.46875 -0.421875 -1.34375 -0.421875q-0.9375 0 -1.484375 0.40625q-0.546875 0.40625 -0.71875 1.015625l-3.171875 -0.25q0.25 -1.125 0.953125 -1.953125q0.703125 -0.828125 1.828125 -1.265625q1.125 -0.453125 2.609375 -0.453125q1.03125 0 1.96875 0.25q0.953125 0.234375 1.6875 0.75q0.734375 0.5 1.15625 1.296875q0.421875 0.78125 0.421875 1.890625l0 8.328125l-3.25 0l0 -1.71875l-0.09375 0q-0.296875 0.578125 -0.796875 1.03125q-0.5 0.4375 -1.203125 0.6875q-0.6875 0.234375 -1.609375 0.234375zm0.984375 -2.359375q0.75 0 1.328125 -0.296875q0.578125 -0.3125 0.90625 -0.828125q0.34375 -0.515625 0.34375 -1.171875l0 -1.3125q-0.171875 0.109375 -0.453125 0.203125q-0.265625 0.078125 -0.609375 0.15625q-0.34375 0.0625 -0.703125 0.109375q-0.34375 0.046875 -0.625 0.09375q-0.59375 0.09375 -1.046875 0.28125q-0.453125 0.1875 -0.703125 0.515625q-0.25 0.328125 -0.25 0.8125q0 0.703125 0.5 1.078125q0.515625 0.359375 1.3125 0.359375zm18.92749 -6.703125l-3.140625 0.1875q-0.078125 -0.40625 -0.34375 -0.71875q-0.265625 -0.328125 -0.703125 -0.53125q-0.421875 -0.203125 -1.03125 -0.203125q-0.796875 0 -1.34375 0.34375q-0.546875 0.328125 -0.546875 0.890625q0 0.4375 0.359375 0.75q0.359375 0.296875 1.21875 0.484375l2.234375 0.453125q1.796875 0.359375 2.6875 1.1875q0.890625 0.8125 0.890625 2.15625q0 1.21875 -0.71875 2.140625q-0.71875 0.90625 -1.953125 1.421875q-1.234375 0.5 -2.84375 0.5q-2.453125 0 -3.90625 -1.015625q-1.453125 -1.03125 -1.6875 -2.796875l3.359375 -0.171875q0.15625 0.734375 0.734375 1.125q0.59375 0.390625 1.515625 0.390625q0.90625 0 1.453125 -0.34375q0.546875 -0.34375 0.5625 -0.90625q-0.015625 -0.46875 -0.40625 -0.765625q-0.375 -0.296875 -1.1875 -0.46875l-2.140625 -0.421875q-1.8125 -0.359375 -2.6875 -1.25q-0.875 -0.90625 -0.875 -2.28125q0 -1.1875 0.640625 -2.046875q0.65625 -0.859375 1.828125 -1.328125q1.171875 -0.46875 2.765625 -0.46875q2.34375 0 3.6875 0.984375q1.34375 0.984375 1.578125 2.703125zm12.727844 0l-3.140625 0.1875q-0.078125 -0.40625 -0.34375 -0.71875q-0.265625 -0.328125 -0.703125 -0.53125q-0.421875 -0.203125 -1.03125 -0.203125q-0.796875 0 -1.34375 0.34375q-0.546875 0.328125 -0.546875 0.890625q0 0.4375 0.359375 0.75q0.359375 0.296875 1.21875 0.484375l2.234375 0.453125q1.796875 0.359375 2.6875 1.1875q0.890625 0.8125 0.890625 2.15625q0 1.21875 -0.71875 2.140625q-0.71875 0.90625 -1.953125 1.421875q-1.234375 0.5 -2.84375 0.5q-2.453125 0 -3.90625 -1.015625q-1.453125 -1.03125 -1.6875 -2.796875l3.359375 -0.171875q0.15625 0.734375 0.734375 1.125q0.59375 0.390625 1.515625 0.390625q0.90625 0 1.453125 -0.34375q0.546875 -0.34375 0.5625 -0.90625q-0.015625 -0.46875 -0.40625 -0.765625q-0.375 -0.296875 -1.1875 -0.46875l-2.140625 -0.421875q-1.8125 -0.359375 -2.6875 -1.25q-0.875 -0.90625 -0.875 -2.28125q0 -1.1875 0.640625 -2.046875q0.65625 -0.859375 1.828125 -1.328125q1.171875 -0.46875 2.765625 -0.46875q2.34375 0 3.6875 0.984375q1.34375 0.984375 1.578125 2.703125zm2.4466553 8.828125l0 -12.359375l3.421875 0l0 12.359375l-3.421875 0zm1.71875 -13.953125q-0.765625 0 -1.3125 -0.5q-0.546875 -0.515625 -0.546875 -1.234375q0 -0.703125 0.546875 -1.21875q0.546875 -0.515625 1.3125 -0.515625q0.765625 0 1.296875 0.515625q0.546875 0.515625 0.546875 1.21875q0 0.71875 -0.546875 1.234375q-0.53125 0.5 -1.296875 0.5zm15.959656 1.59375l-4.328125 12.359375l-3.859375 0l-4.3125 -12.359375l3.609375 0l2.578125 8.84375l0.125 0l2.5625 -8.84375l3.625 0zm6.973816 12.59375q-1.90625 0 -3.28125 -0.765625q-1.375 -0.78125 -2.109375 -2.203125q-0.734375 -1.4375 -0.734375 -3.390625q0 -1.90625 0.734375 -3.34375q0.734375 -1.4375 2.078125 -2.234375q1.359375 -0.8125 3.171875 -0.8125q1.21875 0 2.28125 0.390625q1.0625 0.390625 1.84375 1.171875q0.796875 0.78125 1.234375 1.96875q0.453125 1.171875 0.453125 2.734375l0 0.953125l-10.4375 0l0 -2.125l7.21875 0q0 -0.75 -0.328125 -1.3125q-0.328125 -0.578125 -0.890625 -0.890625q-0.5625 -0.328125 -1.3125 -0.328125q-0.78125 0 -1.390625 0.359375q-0.59375 0.34375 -0.9375 0.953125q-0.328125 0.59375 -0.34375 1.328125l0 2.015625q0 0.921875 0.34375 1.59375q0.34375 0.65625 0.96875 1.03125q0.625 0.359375 1.5 0.359375q0.5625 0 1.03125 -0.15625q0.484375 -0.171875 0.8125 -0.484375q0.34375 -0.328125 0.515625 -0.796875l3.171875 0.203125q-0.234375 1.15625 -0.984375 2.0q-0.734375 0.84375 -1.90625 1.3125q-1.171875 0.46875 -2.703125 0.46875z" fill-rule="nonzero"/><path fill="#111c4e" d="m843.36945 321.6956q0 -2.71875 0.6875 -5.140625q0.6875 -2.4375 1.96875 -4.546875l1.234375 0q-0.546875 0.890625 -1.015625 2.015625q-0.453125 1.125 -0.796875 2.40625q-0.328125 1.28125 -0.515625 2.625q-0.171875 1.328125 -0.171875 2.640625q0 1.75 0.3125 3.53125q0.328125 1.78125 0.890625 3.390625q0.5625 1.59375 1.296875 2.78125l-1.234375 0q-1.28125 -2.140625 -1.96875 -4.5625q-0.6875 -2.421875 -0.6875 -5.140625zm7.110779 7.765625l0 -15.515625l8.96875 0l0 1.28125l-7.5625 0l0 5.828125l6.859375 0l0 1.28125l-6.859375 0l0 7.125l-1.40625 0zm15.473206 0.265625q-1.0625 0 -1.9375 -0.40625q-0.859375 -0.421875 -1.375 -1.203125q-0.515625 -0.78125 -0.515625 -1.90625q0 -0.859375 0.328125 -1.453125q0.328125 -0.59375 0.921875 -0.96875q0.59375 -0.375 1.40625 -0.59375q0.828125 -0.21875 1.8125 -0.34375q0.984375 -0.125 1.65625 -0.21875q0.671875 -0.09375 1.03125 -0.28125q0.359375 -0.203125 0.359375 -0.640625l0 -0.265625q0 -1.1875 -0.71875 -1.875q-0.703125 -0.6875 -2.03125 -0.6875q-1.25 0 -2.046875 0.5625q-0.78125 0.546875 -1.109375 1.296875l-1.28125 -0.46875q0.40625 -0.953125 1.09375 -1.515625q0.703125 -0.578125 1.5625 -0.828125q0.859375 -0.265625 1.75 -0.265625q0.671875 0 1.390625 0.1875q0.71875 0.171875 1.34375 0.59375q0.625 0.421875 1.0 1.1875q0.390625 0.765625 0.390625 1.921875l0 7.90625l-1.34375 0l0 -1.84375l-0.078125 0q-0.25 0.515625 -0.734375 1.0q-0.46875 0.484375 -1.1875 0.796875q-0.71875 0.3125 -1.6875 0.3125zm0.171875 -1.234375q1.078125 0 1.859375 -0.46875q0.796875 -0.484375 1.21875 -1.265625q0.4375 -0.796875 0.4375 -1.765625l0 -1.671875q-0.15625 0.140625 -0.515625 0.265625q-0.34375 0.109375 -0.8125 0.203125q-0.453125 0.078125 -0.90625 0.140625q-0.453125 0.0625 -0.8125 0.09375q-0.984375 0.125 -1.6875 0.390625q-0.6875 0.25 -1.0625 0.703125q-0.375 0.453125 -0.375 1.15625q0 1.0625 0.75 1.640625q0.765625 0.578125 1.90625 0.578125zm8.461914 0.96875l0 -11.640625l1.359375 0l0 11.640625l-1.359375 0zm0.6875 -13.640625q-0.421875 0 -0.71875 -0.28125q-0.28125 -0.28125 -0.28125 -0.6875q0 -0.390625 0.28125 -0.671875q0.296875 -0.296875 0.71875 -0.296875q0.421875 0 0.703125 0.296875q0.296875 0.28125 0.296875 0.671875q0 0.40625 -0.296875 0.6875q-0.28125 0.28125 -0.703125 0.28125zm5.5863647 -1.875l0 15.515625l-1.34375 0l0 -15.515625l1.34375 0zm8.079712 15.765625q-1.5 0 -2.65625 -0.765625q-1.15625 -0.765625 -1.8125 -2.109375q-0.640625 -1.359375 -0.640625 -3.140625q0 -1.78125 0.640625 -3.140625q0.65625 -1.359375 1.8125 -2.125q1.15625 -0.765625 2.65625 -0.765625q1.515625 0 2.65625 0.765625q1.15625 0.765625 1.8125 2.125q0.65625 1.359375 0.65625 3.140625q0 1.78125 -0.65625 3.140625q-0.640625 1.34375 -1.796875 2.109375q-1.15625 0.765625 -2.671875 0.765625zm0 -1.234375q1.21875 0 2.046875 -0.65625q0.84375 -0.65625 1.28125 -1.734375q0.4375 -1.09375 0.4375 -2.390625q0 -1.296875 -0.4375 -2.390625q-0.4375 -1.09375 -1.28125 -1.75q-0.828125 -0.65625 -2.046875 -0.65625q-1.203125 0 -2.046875 0.65625q-0.84375 0.65625 -1.28125 1.75q-0.4375 1.09375 -0.4375 2.390625q0 1.296875 0.4375 2.390625q0.4375 1.078125 1.28125 1.734375q0.84375 0.65625 2.046875 0.65625zm16.663025 -10.65625l-4.25 11.640625l-1.4375 0l-4.25 -11.640625l1.46875 0l3.453125 9.859375l0.109375 0l3.453125 -9.859375l1.453125 0zm6.9122925 11.890625q-1.625 0 -2.8125 -0.765625q-1.1875 -0.765625 -1.84375 -2.109375q-0.640625 -1.359375 -0.640625 -3.125q0 -1.75 0.640625 -3.109375q0.65625 -1.375 1.796875 -2.15625q1.140625 -0.78125 2.65625 -0.78125q0.9375 0 1.8125 0.34375q0.890625 0.34375 1.59375 1.0625q0.703125 0.703125 1.109375 1.78125q0.40625 1.0625 0.40625 2.53125l0 0.65625l-9.09375 0l0 -1.1875l7.71875 0q0 -1.109375 -0.453125 -2.0q-0.453125 -0.90625 -1.25 -1.421875q-0.796875 -0.53125 -1.84375 -0.53125q-1.109375 0 -1.953125 0.59375q-0.84375 0.578125 -1.3125 1.5625q-0.46875 0.96875 -0.484375 2.109375l0 0.71875q0 1.375 0.484375 2.421875q0.484375 1.03125 1.359375 1.609375q0.890625 0.5625 2.109375 0.5625q0.828125 0 1.453125 -0.25q0.625 -0.265625 1.046875 -0.703125q0.4375 -0.4375 0.65625 -0.96875l1.265625 0.421875q-0.25 0.734375 -0.859375 1.359375q-0.609375 0.625 -1.5 1.0q-0.890625 0.375 -2.0625 0.375zm7.6801147 -0.25l0 -11.640625l1.3125 0l0 1.796875l0.09375 0q0.34375 -0.875 1.203125 -1.421875q0.875 -0.546875 1.984375 -0.546875q0.15625 0 0.359375 0.015625q0.203125 0 0.34375 0.015625l0 1.375q-0.09375 -0.015625 -0.328125 -0.046875q-0.21875 -0.03125 -0.484375 -0.03125q-0.90625 0 -1.609375 0.390625q-0.703125 0.375 -1.125 1.046875q-0.40625 0.671875 -0.40625 1.53125l0 7.515625l-1.34375 0zm10.869812 -6.546875q0 2.734375 -0.6875 5.15625q-0.6875 2.421875 -1.96875 4.546875l-1.234375 0q0.5625 -0.90625 1.015625 -2.03125q0.453125 -1.125 0.78125 -2.40625q0.34375 -1.28125 0.515625 -2.609375q0.1875 -1.34375 0.1875 -2.65625q0 -1.75 -0.328125 -3.53125q-0.3125 -1.78125 -0.875 -3.375q-0.5625 -1.59375 -1.296875 -2.78125l1.234375 0q1.28125 2.125 1.96875 4.546875q0.6875 2.421875 0.6875 5.140625z" fill-rule="nonzero"/></g></svg>