<svg width="2415" height="1205" xmlns="http://www.w3.org/2000/svg" xmlns:xlink="http://www.w3.org/1999/xlink" xml:space="preserve" overflow="hidden"><defs><clipPath id="clip0"><rect x="160" y="371" width="2415" height="1205"/></clipPath></defs><g clip-path="url(#clip0)" transform="translate(-160 -371)"><rect x="167.5" y="1308.5" width="436" height="263" stroke="#7183D9" stroke-width="6.875" stroke-linecap="butt" stroke-linejoin="round" stroke-miterlimit="10" stroke-opacity="1" fill="#111C4E" fill-opacity="1"/><text fill="#FFFFFF" fill-opacity="1" font-family="Inter,Inter_MSFontService,sans-serif" font-style="normal" font-variant="normal" font-weight="700" font-stretch="normal" font-size="64" text-anchor="start" direction="ltr" writing-mode="lr-tb" unicode-bidi="normal" text-decoration="none" transform="matrix(1 0 0 1 231.679 1416)">G.io APIm </text><text fill="#FFFFFF" fill-opacity="1" font-family="Inter,Inter_MSFontService,sans-serif" font-style="normal" font-variant="normal" font-weight="700" font-stretch="normal" font-size="64" text-anchor="start" direction="ltr" writing-mode="lr-tb" unicode-bidi="normal" text-decoration="none" transform="matrix(1 0 0 1 245.154 1509)">Gateway</text><rect x="748.5" y="1308.5" width="436" height="263" stroke="#7183D9" stroke-width="6.875" stroke-linecap="butt" stroke-linejoin="round" stroke-miterlimit="10" stroke-opacity="1" fill="#111C4E" fill-opacity="1"/><text fill="#FFFFFF" fill-opacity="1" font-family="Inter,Inter_MSFontService,sans-serif" font-style="normal" font-variant="normal" font-weight="700" font-stretch="normal" font-size="64" text-anchor="start" direction="ltr" writing-mode="lr-tb" unicode-bidi="normal" text-decoration="none" transform="matrix(1 0 0 1 812.76 1416)">G.io APIm </text><text fill="#FFFFFF" fill-opacity="1" font-family="Inter,Inter_MSFontService,sans-serif" font-style="normal" font-variant="normal" font-weight="700" font-stretch="normal" font-size="64" text-anchor="start" direction="ltr" writing-mode="lr-tb" unicode-bidi="normal" text-decoration="none" transform="matrix(1 0 0 1 826.235 1509)">Gateway</text><rect x="457.5" y="637.5" width="436" height="264" stroke="#7183D9" stroke-width="3.4375" stroke-linecap="butt" stroke-linejoin="round" stroke-miterlimit="10" stroke-opacity="1" fill="#111C4E" fill-opacity="1"/><text fill="#FFFFFF" fill-opacity="1" font-family="Inter Light,Inter Light_MSFontService,sans-serif" font-style="normal" font-variant="normal" font-weight="300" font-stretch="normal" font-size="78" text-anchor="start" direction="ltr" writing-mode="lr-tb" unicode-bidi="normal" text-decoration="none" transform="matrix(1 0 0 1 584.553 741)">Load</text><text fill="#FFFFFF" fill-opacity="1" font-family="Inter Light,Inter Light_MSFontService,sans-serif" font-style="normal" font-variant="normal" font-weight="300" font-stretch="normal" font-size="78" text-anchor="start" direction="ltr" writing-mode="lr-tb" unicode-bidi="normal" text-decoration="none" transform="matrix(1 0 0 1 516.765 854)">Balancer</text><path d="M678.507 901.576 678.297 911.116 677.667 920.787 676.633 930.415 675.207 939.983 671.252 958.798 665.885 977.22 659.225 995.034 651.378 1012.09 642.45 1028.25 632.544 1043.36 621.763 1057.27 610.209 1069.84 604.115 1075.64 597.917 1080.98 591.573 1085.92 585.096 1090.42 578.497 1094.48 571.789 1098.06 564.983 1101.16 558.091 1103.74 551.127 1105.79 544.104 1107.29 537.035 1108.21 529.938 1108.53 523.131 1108.82 516.625 1109.67 510.131 1111.06 503.659 1112.97 497.22 1115.38 490.829 1118.29 484.498 1121.68 478.242 1125.52 472.077 1129.81 466.015 1134.53 460.074 1139.65 454.266 1145.17 443.062 1157.36 432.625 1170.83 423.011 1185.5 414.332 1201.21 406.696 1217.81 400.213 1235.15 394.991 1253.08 391.136 1271.44 389.764 1280.67 389.385 1286.09 382.527 1285.59 382.965 1279.65 384.408 1270.02 388.392 1251.15 393.775 1232.74 400.451 1214.94 408.316 1197.88 417.264 1181.73 427.193 1166.62 438.003 1152.7 449.534 1140.18 455.586 1134.45 461.797 1129.1 468.154 1124.17 474.647 1119.66 481.262 1115.61 487.988 1112.03 494.813 1108.94 501.724 1106.37 508.708 1104.33 515.749 1102.85 522.833 1101.96 529.641 1101.66 536.159 1101.39 542.68 1100.56 549.193 1099.2 555.684 1097.3 562.143 1094.9 568.553 1092 574.902 1088.62 581.174 1084.77 587.355 1080.49 593.43 1075.77 599.384 1070.65 605.15 1065.19 616.331 1053.06 626.797 1039.58 636.434 1024.92 645.134 1009.22 652.787 992.623 659.286 975.294 664.524 957.382 668.408 938.968 669.797 929.678 670.807 920.338 671.423 910.965 671.634 901.424ZM399.968 1282.14 384.509 1308.71 372.523 1280.4Z" fill="#7183D9" fill-rule="nonzero" fill-opacity="1"/><path d="M0.0758621-3.43666 9.61621-3.22607 19.2865-2.59665 28.9147-1.56225 38.4826-0.136671 57.298 3.81872 75.7202 9.18527 93.5335 15.8454 110.591 23.6923 126.748 32.6208 141.857 42.5266 155.772 53.3072 168.344 64.8617 174.136 70.9551 179.482 77.1537 184.416 83.4975 188.921 89.9746 192.976 96.5733 196.562 103.282 199.657 110.088 202.241 116.979 204.292 123.943 205.789 130.967 206.708 138.035 207.028 145.132 207.324 151.94 208.172 158.445 209.558 164.939 211.466 171.412 213.882 177.85 216.791 184.242 220.176 190.573 224.022 196.828 228.312 202.994 233.028 209.055 238.153 214.997 243.669 220.804 255.857 232.009 269.331 242.445 283.999 252.059 299.71 260.739 316.311 268.375 333.651 274.857 351.579 280.079 369.941 283.935 379.17 285.306 384.588 285.686 384.095 292.543 378.155 292.106 368.524 290.662 349.653 286.679 331.241 281.296 313.435 274.619 296.382 266.755 280.227 257.807 265.118 247.877 251.201 237.068 238.682 225.537 232.945 219.484 227.6 213.274 222.666 206.916 218.163 200.424 214.111 193.809 210.53 187.082 207.442 180.257 204.869 173.346 202.832 166.363 201.353 159.321 200.455 152.238 200.16 145.43 199.889 138.911 199.063 132.39 197.695 125.878 195.801 119.386 193.396 112.928 190.496 106.517 187.116 100.169 183.274 93.8965 178.987 87.7157 174.273 81.6409 169.149 75.687 163.689 69.9204 151.558 58.7393 138.085 48.274 123.42 38.6364 107.715 29.9368 91.1226 22.2838 73.794 15.7849 55.8815 10.5462 37.4674 6.66296 28.1782 5.27319 18.8377 4.26369 9.46448 3.64726-0.0758621 3.43666ZM380.635 275.102 407.212 290.561 378.899 302.548Z" fill="#7183D9" fill-rule="nonzero" fill-opacity="1" transform="matrix(1.83697e-16 1 1 -1.83697e-16 675.5 901.5)"/><rect x="1554.5" y="1308.5" width="436" height="263" stroke="#7183D9" stroke-width="6.875" stroke-linecap="butt" stroke-linejoin="round" stroke-miterlimit="10" stroke-opacity="1" fill="#111C4E" fill-opacity="1"/><text fill="#FFFFFF" fill-opacity="1" font-family="Inter,Inter_MSFontService,sans-serif" font-style="normal" font-variant="normal" font-weight="700" font-stretch="normal" font-size="64" text-anchor="start" direction="ltr" writing-mode="lr-tb" unicode-bidi="normal" text-decoration="none" transform="matrix(1 0 0 1 1619.49 1416)">G.io APIm </text><text fill="#FFFFFF" fill-opacity="1" font-family="Inter,Inter_MSFontService,sans-serif" font-style="normal" font-variant="normal" font-weight="700" font-stretch="normal" font-size="64" text-anchor="start" direction="ltr" writing-mode="lr-tb" unicode-bidi="normal" text-decoration="none" transform="matrix(1 0 0 1 1632.96 1509)">Gateway</text><rect x="2135.5" y="1308.5" width="436" height="263" stroke="#7183D9" stroke-width="6.875" stroke-linecap="butt" stroke-linejoin="round" stroke-miterlimit="10" stroke-dasharray="6.875 20.625" stroke-opacity="1" fill="#111C4E" fill-opacity="1"/><text fill="#FFFFFF" fill-opacity="1" font-family="Inter,Inter_MSFontService,sans-serif" font-style="normal" font-variant="normal" font-weight="700" font-stretch="normal" font-size="64" text-anchor="start" direction="ltr" writing-mode="lr-tb" unicode-bidi="normal" text-decoration="none" transform="matrix(1 0 0 1 2200.57 1416)">G.io APIm </text><text fill="#FFFFFF" fill-opacity="1" font-family="Inter,Inter_MSFontService,sans-serif" font-style="normal" font-variant="normal" font-weight="700" font-stretch="normal" font-size="64" text-anchor="start" direction="ltr" writing-mode="lr-tb" unicode-bidi="normal" text-decoration="none" transform="matrix(1 0 0 1 2214.04 1509)">Gateway</text><rect x="1845.5" y="637.5" width="436" height="264" stroke="#7183D9" stroke-width="3.4375" stroke-linecap="butt" stroke-linejoin="round" stroke-miterlimit="10" stroke-opacity="1" fill="#111C4E" fill-opacity="1"/><text fill="#FFFFFF" fill-opacity="1" font-family="Inter Light,Inter Light_MSFontService,sans-serif" font-style="normal" font-variant="normal" font-weight="300" font-stretch="normal" font-size="78" text-anchor="start" direction="ltr" writing-mode="lr-tb" unicode-bidi="normal" text-decoration="none" transform="matrix(1 0 0 1 1972.36 741)">Load</text><text fill="#FFFFFF" fill-opacity="1" font-family="Inter Light,Inter Light_MSFontService,sans-serif" font-style="normal" font-variant="normal" font-weight="300" font-stretch="normal" font-size="78" text-anchor="start" direction="ltr" writing-mode="lr-tb" unicode-bidi="normal" text-decoration="none" transform="matrix(1 0 0 1 1904.57 854)">Balancer</text><path d="M2066.51 901.576 2066.3 911.116 2065.67 920.787 2064.63 930.415 2063.21 939.983 2059.25 958.798 2053.89 977.22 2047.22 995.034 2039.38 1012.09 2030.45 1028.25 2020.54 1043.36 2009.76 1057.27 1998.21 1069.84 1992.12 1075.64 1985.92 1080.98 1979.57 1085.92 1973.1 1090.42 1966.5 1094.48 1959.79 1098.06 1952.98 1101.16 1946.09 1103.74 1939.13 1105.79 1932.1 1107.29 1925.04 1108.21 1917.94 1108.53 1911.13 1108.82 1904.63 1109.67 1898.13 1111.06 1891.66 1112.97 1885.22 1115.38 1878.83 1118.29 1872.5 1121.68 1866.24 1125.52 1860.08 1129.81 1854.02 1134.53 1848.07 1139.65 1842.27 1145.17 1831.06 1157.36 1820.63 1170.83 1811.01 1185.5 1802.33 1201.21 1794.7 1217.81 1788.21 1235.15 1782.99 1253.08 1779.14 1271.44 1777.76 1280.67 1777.38 1286.09 1770.53 1285.59 1770.96 1279.65 1772.41 1270.02 1776.39 1251.15 1781.77 1232.74 1788.45 1214.94 1796.32 1197.88 1805.26 1181.73 1815.19 1166.62 1826 1152.7 1837.53 1140.18 1843.59 1134.45 1849.8 1129.1 1856.15 1124.17 1862.65 1119.66 1869.26 1115.61 1875.99 1112.03 1882.81 1108.94 1889.72 1106.37 1896.71 1104.33 1903.75 1102.85 1910.83 1101.96 1917.64 1101.66 1924.16 1101.39 1930.68 1100.56 1937.19 1099.2 1943.68 1097.3 1950.14 1094.9 1956.55 1092 1962.9 1088.62 1969.17 1084.77 1975.35 1080.49 1981.43 1075.77 1987.38 1070.65 1993.15 1065.19 2004.33 1053.06 2014.8 1039.58 2024.43 1024.92 2033.13 1009.22 2040.79 992.623 2047.29 975.294 2052.52 957.382 2056.41 938.968 2057.8 929.678 2058.81 920.338 2059.42 910.965 2059.63 901.424ZM1787.97 1282.14 1772.51 1308.71 1760.52 1280.4Z" fill="#7183D9" fill-rule="nonzero" fill-opacity="1"/><path d="M0.0758621-3.43666 6.94919-3.28494 6.79746 3.58839-0.0758621 3.43666ZM27.7971-1.68267 28.9147-1.56225 34.742-0.695145 33.7268 6.10449 28.1782 5.27319 27.0606 5.15277ZM55.1648 3.36958 57.298 3.81872 62.0599 5.19814 60.1336 11.7978 55.8815 10.5462 53.7483 10.0971ZM81.9511 11.5083 88.3895 13.9192 85.9786 20.3576 79.5402 17.9467ZM107.51 22.2732 110.591 23.6923 113.865 25.4928 110.537 31.5085 107.715 29.9368 104.634 28.5176ZM131.904 35.9933 137.651 39.7659 133.879 45.5133 128.131 41.7407ZM154.399 52.2424 155.772 53.3072 159.773 56.9732 155.117 62.0319 151.558 58.7393 150.185 57.6746ZM174.77 71.685 179.258 76.8937 174.049 81.3809 169.562 76.1722ZM191.492 94.1547 192.976 96.5733 194.979 100.315 188.913 103.551 187.116 100.169 185.632 97.7502ZM203.13 119.98 204.292 123.943 204.925 126.884 198.199 128.308 197.695 125.878 196.533 121.914ZM207.149 147.917 207.324 151.94 207.662 154.476 200.843 155.352 200.455 152.238 200.281 148.215ZM212.331 173.699 213.882 177.85 214.802 179.858 208.541 182.699 207.442 180.257 205.891 176.106ZM224.407 197.372 228.312 202.994 222.794 207.089 222.666 206.916 218.761 201.295ZM241.327 218.336 243.669 220.804 246.058 222.992 241.403 228.051 238.682 225.537 236.34 223.068ZM261.411 236.302 266.844 240.515 262.63 245.948 257.197 241.734ZM283.721 251.877 283.999 252.059 289.502 255.092 286.174 261.108 280.227 257.807 279.949 257.624ZM307.622 264.373 313.866 267.249 310.99 273.493 304.746 270.617ZM332.873 274.566 333.651 274.857 339.211 276.47 337.285 283.069 331.241 281.296 330.462 281.004ZM358.899 281.61 365.627 283.026 364.21 289.754 357.483 288.338ZM380.635 275.102 407.212 290.561 378.899 302.548Z" fill="#7183D9" fill-rule="nonzero" fill-opacity="1" transform="matrix(1.83697e-16 1 1 -1.83697e-16 2063.5 901.5)"/><text fill="#111C4E" fill-opacity="1" font-family="Inter,Inter_MSFontService,sans-serif" font-style="normal" font-variant="normal" font-weight="700" font-stretch="normal" font-size="78" text-anchor="start" direction="ltr" writing-mode="lr-tb" unicode-bidi="normal" text-decoration="none" transform="matrix(1 0 0 1 394.009 491)">Active / Active</text><text fill="#111C4E" fill-opacity="1" font-family="Inter Light,Inter Light_MSFontService,sans-serif" font-style="normal" font-variant="normal" font-weight="300" font-stretch="normal" font-size="73" text-anchor="start" direction="ltr" writing-mode="lr-tb" unicode-bidi="normal" text-decoration="none" transform="matrix(1 0 0 1 387.639 599)">(Load Balancing)</text><text fill="#111C4E" fill-opacity="1" font-family="Inter,Inter_MSFontService,sans-serif" font-style="normal" font-variant="normal" font-weight="700" font-stretch="normal" font-size="78" text-anchor="start" direction="ltr" writing-mode="lr-tb" unicode-bidi="normal" text-decoration="none" transform="matrix(1 0 0 1 1757.36 491)">Active / Passive</text><text fill="#111C4E" fill-opacity="1" font-family="Inter Light,Inter Light_MSFontService,sans-serif" font-style="normal" font-variant="normal" font-weight="300" font-stretch="normal" font-size="73" text-anchor="start" direction="ltr" writing-mode="lr-tb" unicode-bidi="normal" text-decoration="none" transform="matrix(1 0 0 1 1902.52 599)">(Failover)</text></g></svg>